<svg width="450" height="450" viewBox="0 0 450 450" fill="none" xmlns="http://www.w3.org/2000/svg">
<mask id="path-1-outside-1" maskUnits="userSpaceOnUse" x="131.625" y="213.356" width="25" height="72" fill="black">
<rect fill="white" x="131.625" y="213.356" width="25" height="72"/>
<path fill-rule="evenodd" clip-rule="evenodd" d="M134.625 217.6C145.822 231.104 152.552 248.444 152.552 267.356C152.552 272.84 151.986 278.192 150.91 283.356H152.952C154.001 278.186 154.552 272.835 154.552 267.356C154.552 247.974 147.66 230.201 136.191 216.356L134.625 217.6Z"/>
</mask>
<path fill-rule="evenodd" clip-rule="evenodd" d="M134.625 217.6C145.822 231.104 152.552 248.444 152.552 267.356C152.552 272.84 151.986 278.192 150.91 283.356H152.952C154.001 278.186 154.552 272.835 154.552 267.356C154.552 247.974 147.66 230.201 136.191 216.356L134.625 217.6Z" fill="#6D58C1"/>
<path d="M134.625 217.6L133.381 216.034L131.781 217.304L133.085 218.877L134.625 217.6ZM150.91 283.356L148.952 282.948L148.45 285.356H150.91V283.356ZM152.952 283.356V285.356H154.587L154.912 283.754L152.952 283.356ZM136.191 216.356L137.732 215.081L136.482 213.572L134.948 214.79L136.191 216.356ZM133.085 218.877C143.995 232.035 150.552 248.927 150.552 267.356H154.552C154.552 247.961 147.648 230.173 136.164 216.324L133.085 218.877ZM150.552 267.356C150.552 272.702 150.001 277.917 148.952 282.948L152.868 283.764C153.972 278.466 154.552 272.978 154.552 267.356H150.552ZM150.91 285.356H152.952V281.356H150.91V285.356ZM154.912 283.754C155.988 278.454 156.552 272.97 156.552 267.356H152.552C152.552 272.701 152.015 277.919 150.992 282.958L154.912 283.754ZM156.552 267.356C156.552 247.491 149.486 229.271 137.732 215.081L134.651 217.632C145.833 231.132 152.552 248.456 152.552 267.356H156.552ZM134.948 214.79L133.381 216.034L135.868 219.167L137.435 217.923L134.948 214.79Z" fill="#6D58C1" mask="url(#path-1-outside-1)"/>
<line x1="62.6713" y1="279.083" x2="326.901" y2="65.1143" stroke="#6D58C1" stroke-width="10"/>
<line x1="60.2291" y1="281.031" x2="400.229" y2="281.031" stroke="#6D58C1" stroke-width="10"/>
<circle cx="63" cy="280.194" r="13" fill="#524197"/>
<path d="M170.05 244.078C169.87 244.6 170.146 245.17 170.668 245.35L179.173 248.295C179.695 248.475 180.264 248.199 180.445 247.677C180.626 247.155 180.349 246.585 179.827 246.405L172.267 243.788L174.885 236.228C175.065 235.706 174.789 235.136 174.267 234.956C173.745 234.775 173.175 235.052 172.995 235.574L170.05 244.078ZM224.53 217.294L170.558 243.506L171.432 245.305L225.404 219.093L224.53 217.294Z" fill="black"/>
<path d="M165.652 178.023C166.204 178.036 166.663 177.599 166.676 177.047L166.895 168.05C166.909 167.498 166.472 167.039 165.92 167.026C165.368 167.012 164.909 167.449 164.896 168.001L164.701 175.999L156.703 175.804C156.151 175.791 155.693 176.227 155.679 176.779C155.666 177.332 156.102 177.79 156.655 177.803L165.652 178.023ZM123.571 134.266L164.952 177.713L166.4 176.333L125.02 132.886L123.571 134.266Z" fill="black"/>
<path d="M205.214 296.206C204.821 295.818 204.188 295.822 203.8 296.215L197.474 302.616C197.086 303.009 197.09 303.642 197.483 304.031C197.875 304.419 198.509 304.415 198.897 304.022L204.52 298.332L210.21 303.955C210.603 304.343 211.236 304.339 211.624 303.946C212.013 303.553 212.009 302.92 211.616 302.532L205.214 296.206ZM205.869 356.91L205.511 296.911L203.511 296.923L203.87 356.922L205.869 356.91Z" fill="black"/>
<path d="M63.7028 296.482C63.31 296.094 62.6768 296.098 62.2886 296.491L55.9628 302.892C55.5746 303.285 55.5784 303.918 55.9712 304.307C56.3641 304.695 56.9972 304.691 57.3854 304.298L63.0084 298.608L68.6989 304.231C69.0918 304.619 69.7249 304.615 70.1131 304.222C70.5013 303.829 70.4975 303.196 70.1047 302.808L63.7028 296.482ZM64.3581 357.186L63.9999 297.188L62 297.199L62.3582 357.198L64.3581 357.186Z" fill="black"/>
<path d="M243.065 216.027C242.937 217.393 242.433 218.459 241.554 219.227C240.675 219.988 239.506 220.369 238.047 220.369C237.027 220.369 236.128 220.129 235.349 219.649C234.575 219.162 233.978 218.474 233.556 217.583C233.134 216.693 232.914 215.658 232.896 214.481V213.285C232.896 212.078 233.11 211.015 233.538 210.095C233.966 209.175 234.578 208.466 235.375 207.968C236.178 207.47 237.104 207.221 238.152 207.221C239.564 207.221 240.701 207.605 241.562 208.372C242.424 209.14 242.925 210.224 243.065 211.624H240.851C240.745 210.704 240.476 210.042 240.042 209.638C239.614 209.228 238.984 209.023 238.152 209.023C237.186 209.023 236.441 209.377 235.92 210.086C235.404 210.789 235.141 211.823 235.129 213.189V214.322C235.129 215.705 235.375 216.76 235.867 217.486C236.365 218.213 237.092 218.576 238.047 218.576C238.92 218.576 239.576 218.38 240.016 217.987C240.455 217.595 240.733 216.942 240.851 216.027H243.065Z" fill="black"/>
<path d="M107.301 136.194V123.397H111.687C113.134 123.397 114.235 123.687 114.991 124.267C115.747 124.847 116.125 125.711 116.125 126.86C116.125 127.445 115.967 127.973 115.65 128.442C115.334 128.91 114.871 129.274 114.262 129.531C114.953 129.719 115.486 130.073 115.861 130.595C116.242 131.111 116.433 131.732 116.433 132.458C116.433 133.659 116.046 134.582 115.272 135.227C114.505 135.871 113.403 136.194 111.968 136.194H107.301ZM109.524 130.419V134.418H111.994C112.691 134.418 113.236 134.245 113.629 133.9C114.021 133.554 114.218 133.073 114.218 132.458C114.218 131.128 113.538 130.448 112.179 130.419H109.524ZM109.524 128.784H111.704C112.396 128.784 112.935 128.629 113.321 128.319C113.714 128.002 113.91 127.557 113.91 126.983C113.91 126.35 113.729 125.893 113.365 125.611C113.008 125.33 112.448 125.19 111.687 125.19H109.524V128.784Z" fill="black"/>
<path d="M213.301 364.194V351.397H217.08C218.211 351.397 219.213 351.649 220.086 352.152C220.965 352.656 221.645 353.371 222.125 354.297C222.605 355.223 222.846 356.283 222.846 357.479V358.12C222.846 359.333 222.603 360.4 222.116 361.319C221.636 362.239 220.947 362.948 220.051 363.446C219.16 363.944 218.138 364.194 216.983 364.194H213.301ZM215.524 353.19V362.418H216.975C218.141 362.418 219.034 362.055 219.655 361.328C220.282 360.596 220.602 359.547 220.613 358.182V357.47C220.613 356.081 220.312 355.021 219.708 354.288C219.104 353.556 218.229 353.19 217.08 353.19H215.524Z" fill="black"/>
<path d="M65.4639 373.214H60.5068L59.4697 376.194H57.1582L61.9922 363.397H63.9873L68.8301 376.194H66.5098L65.4639 373.214ZM61.1309 371.421H64.8398L62.9854 366.112L61.1309 371.421Z" fill="black"/>
</svg>
