<svg width="450" height="450" viewBox="0 0 450 450" fill="none" xmlns="http://www.w3.org/2000/svg">
<path d="M397.731 366.36C399.683 364.407 399.683 361.242 397.731 359.289L365.911 327.469C363.958 325.517 360.792 325.517 358.84 327.469C356.887 329.422 356.887 332.588 358.84 334.54L387.124 362.824L358.84 391.109C356.887 393.061 356.887 396.227 358.84 398.18C360.792 400.132 363.958 400.132 365.911 398.18L397.731 366.36ZM104.168 367.824H394.195V357.824H104.168V367.824Z" fill="#6D58C1"/>
<path d="M58.8679 77.9042C56.6059 76.3203 53.4882 76.8701 51.9043 79.1321L26.0933 115.994C24.5094 118.256 25.0592 121.374 27.3212 122.958C29.5832 124.541 32.701 123.992 34.2849 121.73L57.2279 88.9636L89.994 111.907C92.256 113.491 95.3737 112.941 96.9576 110.679C98.5415 108.417 97.9918 105.299 95.7298 103.715L58.8679 77.9042ZM111.287 366.753L60.9241 81.1317L51.076 82.8682L101.439 368.49L111.287 366.753Z" fill="#6D58C1"/>
<path fill-rule="evenodd" clip-rule="evenodd" d="M83.6282 264.425C92.0308 261.427 101.082 259.795 110.514 259.795C154.697 259.795 190.514 295.612 190.514 339.795C190.514 349.723 188.706 359.228 185.4 368H191.782C194.848 359.164 196.514 349.674 196.514 339.795C196.514 292.298 158.01 253.795 110.514 253.795C100.733 253.795 91.3329 255.428 82.5721 258.436L83.6282 264.425Z" fill="#6D58C1"/>
</svg>
