<svg width="450" height="450" viewBox="0 0 450 450" fill="none" xmlns="http://www.w3.org/2000/svg">
<path d="M375.115 315.726C377.068 313.773 377.068 310.607 375.115 308.655L343.296 276.835C341.343 274.882 338.177 274.882 336.224 276.835C334.272 278.787 334.272 281.953 336.224 283.906L364.509 312.19L336.224 340.474C334.272 342.427 334.272 345.593 336.224 347.545C338.177 349.498 341.343 349.498 343.296 347.545L375.115 315.726ZM81.5522 317.19H371.58V307.19H81.5522V317.19Z" fill="#6D58C1"/>
<path d="M312.099 134.57C312.414 131.827 310.446 129.348 307.702 129.033L262.996 123.9C260.253 123.585 257.773 125.554 257.458 128.297C257.143 131.041 259.112 133.52 261.855 133.835L301.594 138.397L297.032 178.136C296.717 180.88 298.686 183.359 301.429 183.674C304.173 183.989 306.652 182.02 306.967 179.277L312.099 134.57ZM83.1092 318.268L310.241 137.916L304.023 130.084L76.8908 310.437L83.1092 318.268Z" fill="#6D58C1"/>
<mask id="path-3-outside-1" maskUnits="userSpaceOnUse" x="154.625" y="245.163" width="25" height="72" fill="black">
<rect fill="white" x="154.625" y="245.163" width="25" height="72"/>
<path fill-rule="evenodd" clip-rule="evenodd" d="M157.625 249.407C168.821 262.91 175.552 280.25 175.552 299.162C175.552 304.646 174.986 309.998 173.91 315.162H175.952C177.001 309.993 177.552 304.642 177.552 299.162C177.552 279.78 170.659 262.008 159.191 248.163L157.625 249.407Z"/>
</mask>
<path fill-rule="evenodd" clip-rule="evenodd" d="M157.625 249.407C168.821 262.91 175.552 280.25 175.552 299.162C175.552 304.646 174.986 309.998 173.91 315.162H175.952C177.001 309.993 177.552 304.642 177.552 299.162C177.552 279.78 170.659 262.008 159.191 248.163L157.625 249.407Z" fill="#6D58C1"/>
<path d="M157.625 249.407L156.381 247.841L154.781 249.111L156.085 250.683L157.625 249.407ZM173.91 315.162L171.952 314.754L171.45 317.162H173.91V315.162ZM175.952 315.162V317.162H177.587L177.912 315.56L175.952 315.162ZM159.191 248.163L160.732 246.887L159.482 245.378L157.948 246.597L159.191 248.163ZM156.085 250.683C166.995 263.841 173.552 280.733 173.552 299.162H177.552C177.552 279.767 170.648 261.979 159.164 248.13L156.085 250.683ZM173.552 299.162C173.552 304.508 173.001 309.723 171.952 314.754L175.868 315.571C176.972 310.273 177.552 304.784 177.552 299.162H173.552ZM173.91 317.162H175.952V313.162H173.91V317.162ZM177.912 315.56C178.988 310.26 179.552 304.776 179.552 299.162H175.552C175.552 304.508 175.015 309.725 173.992 314.765L177.912 315.56ZM179.552 299.162C179.552 279.297 172.486 261.077 160.732 246.887L157.651 249.439C168.833 262.938 175.552 280.263 175.552 299.162H179.552ZM157.948 246.597L156.381 247.841L158.868 250.973L160.435 249.729L157.948 246.597Z" fill="#6D58C1" mask="url(#path-3-outside-1)"/>
</svg>
