<svg width="450" height="450" viewBox="0 0 450 450" fill="none" xmlns="http://www.w3.org/2000/svg">
<g clip-path="url(#clip0)">
<path d="M426.708 132.663C428.661 130.71 428.661 127.545 426.708 125.592L394.888 93.7722C392.936 91.8196 389.77 91.8196 387.817 93.7722C385.865 95.7248 385.865 98.8907 387.817 100.843L416.101 129.128L387.817 157.412C385.865 159.364 385.865 162.53 387.817 164.483C389.77 166.436 392.936 166.436 394.888 164.483L426.708 132.663ZM133.145 134.128H423.173V124.128H133.145V134.128Z" fill="#6D58C1"/>
<path d="M22.3854 396.153C23.4485 398.701 26.3764 399.905 28.9249 398.842L70.4563 381.517C73.0049 380.454 74.209 377.526 73.1459 374.978C72.0828 372.429 69.1549 371.225 66.6063 372.288L29.6896 387.688L14.2898 350.771C13.2267 348.223 10.2988 347.019 7.75022 348.082C5.20165 349.145 3.99746 352.073 5.0606 354.621L22.3854 396.153ZM132.693 124.098L22.3758 392.326L31.6241 396.129L141.942 127.902L132.693 124.098Z" fill="#6D58C1"/>
<path fill-rule="evenodd" clip-rule="evenodd" d="M147 55C192.14 55 229.157 89.7774 232.719 134H226.698C223.152 93.0953 188.824 61 147 61C102.817 61 67 96.8172 67 141C67 170.915 83.4197 196.995 107.738 210.719L105.439 216.309C78.942 201.655 61 173.423 61 141C61 93.5035 99.5035 55 147 55Z" fill="#6D58C1"/>
</g>
<defs>
<clipPath id="clip0">
<rect width="450" height="450" fill="white"/>
</clipPath>
</defs>
</svg>
