<svg width="550" height="450" viewBox="0 0 550 450" fill="none" xmlns="http://www.w3.org/2000/svg">
<mask id="path-1-outside-1" maskUnits="userSpaceOnUse" x="118.625" y="256.634" width="25" height="72" fill="black">
<rect fill="white" x="118.625" y="256.634" width="25" height="72"/>
<path fill-rule="evenodd" clip-rule="evenodd" d="M121.625 260.878C132.822 274.381 139.552 291.721 139.552 310.634C139.552 316.118 138.986 321.469 137.91 326.634H139.952C141.001 321.464 141.552 316.113 141.552 310.634C141.552 291.251 134.66 273.479 123.191 259.634L121.625 260.878Z"/>
</mask>
<path fill-rule="evenodd" clip-rule="evenodd" d="M121.625 260.878C132.822 274.381 139.552 291.721 139.552 310.634C139.552 316.118 138.986 321.469 137.91 326.634H139.952C141.001 321.464 141.552 316.113 141.552 310.634C141.552 291.251 134.66 273.479 123.191 259.634L121.625 260.878Z" fill="#576CCD"/>
<path d="M121.625 260.878L120.381 259.312L118.781 260.582L120.085 262.155L121.625 260.878ZM137.91 326.634L135.952 326.225L135.45 328.634H137.91V326.634ZM139.952 326.634V328.634H141.587L141.912 327.032L139.952 326.634ZM123.191 259.634L124.732 258.358L123.482 256.85L121.948 258.068L123.191 259.634ZM120.085 262.155C130.995 275.312 137.552 292.205 137.552 310.634H141.552C141.552 291.238 134.648 273.45 123.164 259.601L120.085 262.155ZM137.552 310.634C137.552 315.98 137.001 321.195 135.952 326.225L139.868 327.042C140.972 321.744 141.552 316.256 141.552 310.634H137.552ZM137.91 328.634H139.952V324.634H137.91V328.634ZM141.912 327.032C142.988 321.732 143.552 316.247 143.552 310.634H139.552C139.552 315.979 139.015 321.196 137.992 326.236L141.912 327.032ZM143.552 310.634C143.552 290.769 136.486 272.549 124.732 258.358L121.651 260.91C132.833 274.409 139.552 291.734 139.552 310.634H143.552ZM121.948 258.068L120.381 259.312L122.868 262.444L124.435 261.2L121.948 258.068Z" fill="#576CCD" mask="url(#path-1-outside-1)"/>
<line x1="19.6713" y1="334.361" x2="423.787" y2="7.11428" stroke="#576CCD" stroke-width="10"/>
<line x1="16.2291" y1="333.309" x2="536.229" y2="333.309" stroke="#576CCD" stroke-width="10"/>
<circle cx="26" cy="331.471" r="13" fill="#7491ED"/>
<path d="M156.42 291.876C156.212 292.388 156.458 292.971 156.97 293.179L165.309 296.564C165.821 296.772 166.404 296.526 166.612 296.014C166.819 295.502 166.573 294.919 166.061 294.711L158.649 291.702L161.658 284.29C161.866 283.778 161.62 283.195 161.108 282.987C160.596 282.779 160.013 283.025 159.805 283.537L156.42 291.876ZM212.227 267.981L156.957 291.331L157.735 293.173L213.005 269.823L212.227 267.981Z" fill="black"/>
<path d="M189.652 171.3C190.204 171.314 190.663 170.877 190.676 170.325L190.895 161.328C190.909 160.775 190.472 160.317 189.92 160.304C189.368 160.29 188.909 160.727 188.896 161.279L188.701 169.276L180.703 169.082C180.151 169.068 179.693 169.505 179.679 170.057C179.666 170.609 180.102 171.068 180.655 171.081L189.652 171.3ZM147.571 127.543L188.952 170.99L190.4 169.611L149.02 126.164L147.571 127.543Z" fill="black"/>
<path d="M385.114 314.985C385.504 315.376 386.137 315.376 386.528 314.985L392.892 308.621C393.282 308.231 393.282 307.598 392.892 307.207C392.501 306.817 391.868 306.817 391.478 307.207L385.821 312.864L380.164 307.207C379.773 306.817 379.14 306.817 378.75 307.207C378.359 307.598 378.359 308.231 378.75 308.621L385.114 314.985ZM384.821 254.278V314.278H386.821V254.278H384.821Z" fill="black"/>
<path d="M22.472 305.985C22.8625 306.376 23.4957 306.376 23.8862 305.985L30.2501 299.621C30.6407 299.231 30.6407 298.598 30.2501 298.207C29.8596 297.817 29.2265 297.817 28.8359 298.207L23.1791 303.864L17.5222 298.207C17.1317 297.817 16.4985 297.817 16.108 298.207C15.7175 298.598 15.7175 299.231 16.108 299.621L22.472 305.985ZM22.1791 245.278L22.1791 305.278H24.1791L24.1791 245.278H22.1791Z" fill="black"/>
<path d="M233.065 264.305C232.937 265.67 232.433 266.737 231.554 267.504C230.675 268.266 229.506 268.647 228.047 268.647C227.027 268.647 226.128 268.407 225.349 267.926C224.575 267.44 223.978 266.751 223.556 265.861C223.134 264.97 222.914 263.936 222.896 262.758V261.563C222.896 260.356 223.11 259.292 223.538 258.373C223.966 257.453 224.578 256.744 225.375 256.246C226.178 255.748 227.104 255.499 228.152 255.499C229.564 255.499 230.701 255.882 231.562 256.65C232.424 257.417 232.925 258.501 233.065 259.902H230.851C230.745 258.982 230.476 258.32 230.042 257.916C229.614 257.505 228.984 257.3 228.152 257.3C227.186 257.3 226.441 257.655 225.92 258.364C225.404 259.067 225.141 260.101 225.129 261.466V262.6C225.129 263.983 225.375 265.038 225.867 265.764C226.365 266.491 227.092 266.854 228.047 266.854C228.92 266.854 229.576 266.658 230.016 266.265C230.455 265.873 230.733 265.219 230.851 264.305H233.065Z" fill="black"/>
<path d="M141.301 119.471V106.674H145.687C147.134 106.674 148.235 106.964 148.991 107.544C149.747 108.124 150.125 108.989 150.125 110.137C150.125 110.723 149.967 111.25 149.65 111.719C149.334 112.188 148.871 112.551 148.262 112.809C148.953 112.997 149.486 113.351 149.861 113.873C150.242 114.388 150.433 115.009 150.433 115.736C150.433 116.937 150.046 117.86 149.272 118.504C148.505 119.149 147.403 119.471 145.968 119.471H141.301ZM143.524 113.697V117.696H145.994C146.691 117.696 147.236 117.523 147.629 117.177C148.021 116.832 148.218 116.351 148.218 115.736C148.218 114.406 147.538 113.726 146.179 113.697H143.524ZM143.524 112.062H145.704C146.396 112.062 146.935 111.907 147.321 111.596C147.714 111.28 147.91 110.834 147.91 110.26C147.91 109.627 147.729 109.17 147.365 108.889C147.008 108.608 146.448 108.467 145.687 108.467H143.524V112.062Z" fill="black"/>
<path d="M381.301 243.278V230.481H385.08C386.211 230.481 387.213 230.733 388.086 231.237C388.965 231.741 389.645 232.455 390.125 233.381C390.605 234.307 390.846 235.368 390.846 236.563V237.204C390.846 238.417 390.603 239.484 390.116 240.404C389.636 241.324 388.947 242.033 388.051 242.531C387.16 243.029 386.138 243.278 384.983 243.278H381.301ZM383.524 232.274V241.502H384.975C386.141 241.502 387.034 241.139 387.655 240.412C388.282 239.68 388.602 238.631 388.613 237.266V236.554C388.613 235.165 388.312 234.105 387.708 233.372C387.104 232.64 386.229 232.274 385.08 232.274H383.524Z" fill="black"/>
<path d="M25.4639 233.298H20.5068L19.4697 236.278H17.1582L21.9922 223.481H23.9873L28.8301 236.278H26.5098L25.4639 233.298ZM21.1309 231.505H24.8398L22.9854 226.197L21.1309 231.505Z" fill="black"/>
</svg>
