<svg width="450" height="450" viewBox="0 0 450 450" fill="none" xmlns="http://www.w3.org/2000/svg">
<mask id="path-1-outside-1" maskUnits="userSpaceOnUse" x="82" y="270" width="94" height="100" fill="black">
<rect fill="white" x="82" y="270" width="94" height="100"/>
<path fill-rule="evenodd" clip-rule="evenodd" d="M172.4 368C173.449 362.83 174 357.479 174 352C174 307.817 138.183 272 94 272C90.6134 272 87.2759 272.21 84 272.619V274.635C87.2742 274.216 90.6119 274 94 274C137.078 274 172 308.922 172 352C172 357.484 171.434 362.836 170.357 368H172.4Z"/>
</mask>
<path fill-rule="evenodd" clip-rule="evenodd" d="M172.4 368C173.449 362.83 174 357.479 174 352C174 307.817 138.183 272 94 272C90.6134 272 87.2759 272.21 84 272.619V274.635C87.2742 274.216 90.6119 274 94 274C137.078 274 172 308.922 172 352C172 357.484 171.434 362.836 170.357 368H172.4Z" fill="#6D58C1"/>
<path d="M172.4 368V370H174.035L174.36 368.398L172.4 368ZM84 272.619L83.7525 270.634L82 270.853V272.619H84ZM84 274.635H82V276.907L84.2539 276.619L84 274.635ZM170.357 368L168.4 367.592L167.897 370H170.357V368ZM174.36 368.398C175.436 363.098 176 357.614 176 352H172C172 357.345 171.463 362.563 170.44 367.602L174.36 368.398ZM176 352C176 306.713 139.287 270 94 270V274C137.078 274 172 308.922 172 352H176ZM94 270C90.5305 270 87.1104 270.216 83.7525 270.634L84.2475 274.604C87.4415 274.205 90.6963 274 94 274V270ZM82 272.619V274.635H86V272.619H82ZM84.2539 276.619C87.4441 276.211 90.697 276 94 276V272C90.5268 272 87.1043 272.221 83.7461 272.651L84.2539 276.619ZM94 276C135.974 276 170 310.026 170 352H174C174 307.817 138.183 272 94 272V276ZM170 352C170 357.346 169.448 362.561 168.4 367.592L172.315 368.408C173.42 363.11 174 357.622 174 352H170ZM170.357 370H172.4V366H170.357V370Z" fill="#6D58C1" mask="url(#path-1-outside-1)"/>
<path d="M373.563 370.563C375.516 368.611 375.516 365.445 373.563 363.492L341.743 331.672C339.791 329.72 336.625 329.72 334.672 331.672C332.72 333.625 332.72 336.791 334.672 338.743L362.957 367.028L334.672 395.312C332.72 397.264 332.72 400.43 334.672 402.383C336.625 404.336 339.791 404.336 341.743 402.383L373.563 370.563ZM80 372.028H370.028V362.028H80V372.028Z" fill="#6D58C1"/>
<path d="M88.5493 76.4645C86.5967 74.5118 83.4309 74.5118 81.4783 76.4645L49.6585 108.284C47.7058 110.237 47.7058 113.403 49.6585 115.355C51.6111 117.308 54.7769 117.308 56.7295 115.355L85.0138 87.0711L113.298 115.355C115.251 117.308 118.417 117.308 120.369 115.355C122.322 113.403 122.322 110.237 120.369 108.284L88.5493 76.4645ZM90.0138 370.028L90.0138 80H80.0138L80.0138 370.028H90.0138Z" fill="#6D58C1"/>
</svg>
