<svg width="450" height="450" viewBox="0 0 450 450" fill="none" xmlns="http://www.w3.org/2000/svg">
<path d="M373.563 360.818C375.516 358.865 375.516 355.699 373.563 353.747L341.743 321.927C339.791 319.974 336.625 319.974 334.672 321.927C332.72 323.88 332.72 327.045 334.672 328.998L362.957 357.282L334.672 385.566C332.72 387.519 332.72 390.685 334.672 392.638C336.625 394.59 339.791 394.59 341.743 392.638L373.563 360.818ZM80 362.282H370.028V352.282H80V362.282Z" fill="#6D58C1"/>
<path d="M186.143 85.887C184.976 83.3843 182.001 82.3015 179.498 83.4685L138.714 102.486C136.212 103.653 135.129 106.628 136.296 109.131C137.463 111.634 140.438 112.716 142.941 111.549L179.193 94.6447L196.098 130.897C197.265 133.4 200.24 134.482 202.742 133.315C205.245 132.148 206.328 129.174 205.161 126.671L186.143 85.887ZM87.1146 362.247L186.31 89.7102L176.913 86.29L77.7177 358.827L87.1146 362.247Z" fill="#6D58C1"/>
<path fill-rule="evenodd" clip-rule="evenodd" d="M197.092 362.092C199.275 354.808 200.448 347.087 200.448 339.092C200.448 294.909 164.631 259.092 120.448 259.092C118.434 259.092 116.438 259.166 114.462 259.313L112.193 265.547C114.903 265.246 117.657 265.092 120.448 265.092C161.317 265.092 194.448 298.223 194.448 339.092C194.448 347.122 193.169 354.852 190.804 362.092H197.092Z" fill="#6D58C1"/>
</svg>
