<svg width="333" height="233" viewBox="0 0 333 233" fill="none" xmlns="http://www.w3.org/2000/svg">
<g clip-path="url(#clip0)">
<path d="M316.115 194.726C318.068 192.773 318.068 189.607 316.115 187.655L284.296 155.835C282.343 153.882 279.177 153.882 277.224 155.835C275.272 157.787 275.272 160.953 277.224 162.906L305.509 191.19L277.224 219.474C275.272 221.427 275.272 224.593 277.224 226.545C279.177 228.498 282.343 228.498 284.296 226.545L316.115 194.726ZM22.5522 196.19H312.58V186.19H22.5522V196.19Z" fill="#6D58C1"/>
<path d="M253.099 13.5703C253.414 10.8269 251.446 8.34757 248.702 8.03264L203.996 2.90031C201.253 2.58537 198.773 4.55401 198.458 7.29743C198.143 10.0408 200.112 12.5201 202.855 12.8351L242.594 17.3971L238.032 57.1361C237.717 59.8795 239.686 62.3588 242.429 62.6738C245.173 62.9887 247.652 61.02 247.967 58.2766L253.099 13.5703ZM24.1092 197.268L251.241 16.9157L245.023 9.08431L17.8908 189.437L24.1092 197.268Z" fill="#6D58C1"/>
<mask id="path-3-outside-1" maskUnits="userSpaceOnUse" x="95.6247" y="124.163" width="25" height="72" fill="black">
<rect fill="white" x="95.6247" y="124.163" width="25" height="72"/>
<path fill-rule="evenodd" clip-rule="evenodd" d="M98.6247 128.407C109.821 141.91 116.552 159.25 116.552 178.162C116.552 183.646 115.986 188.998 114.91 194.162H116.952C118.001 188.993 118.552 183.642 118.552 178.162C118.552 158.78 111.659 141.008 100.191 127.163L98.6247 128.407Z"/>
</mask>
<path fill-rule="evenodd" clip-rule="evenodd" d="M98.6247 128.407C109.821 141.91 116.552 159.25 116.552 178.162C116.552 183.646 115.986 188.998 114.91 194.162H116.952C118.001 188.993 118.552 183.642 118.552 178.162C118.552 158.78 111.659 141.008 100.191 127.163L98.6247 128.407Z" fill="#6D58C1"/>
<path d="M98.6247 128.407L97.381 126.841L95.7812 128.111L97.0851 129.683L98.6247 128.407ZM114.91 194.162L112.952 193.754L112.45 196.162H114.91V194.162ZM116.952 194.162V196.162H118.587L118.912 194.56L116.952 194.162ZM100.191 127.163L101.732 125.887L100.482 124.378L98.9477 125.597L100.191 127.163ZM97.0851 129.683C107.995 142.841 114.552 159.733 114.552 178.162H118.552C118.552 158.767 111.648 140.979 100.164 127.13L97.0851 129.683ZM114.552 178.162C114.552 183.508 114.001 188.723 112.952 193.754L116.868 194.571C117.972 189.273 118.552 183.784 118.552 178.162H114.552ZM114.91 196.162H116.952V192.162H114.91V196.162ZM118.912 194.56C119.988 189.26 120.552 183.776 120.552 178.162H116.552C116.552 183.508 116.015 188.725 114.992 193.765L118.912 194.56ZM120.552 178.162C120.552 158.297 113.486 140.077 101.732 125.887L98.6511 128.439C109.833 141.938 116.552 159.263 116.552 178.162H120.552ZM98.9477 125.597L97.381 126.841L99.8684 129.973L101.435 128.729L98.9477 125.597Z" fill="#6D58C1" mask="url(#path-3-outside-1)"/>
</g>
<defs>
<clipPath id="clip0">
<rect width="333" height="233" fill="white"/>
</clipPath>
</defs>
</svg>
