<svg width="333" height="333" viewBox="0 0 333 333" fill="none" xmlns="http://www.w3.org/2000/svg">
<mask id="path-1-outside-1" maskUnits="userSpaceOnUse" x="39" y="197" width="94" height="100" fill="black">
<rect fill="white" x="39" y="197" width="94" height="100"/>
<path fill-rule="evenodd" clip-rule="evenodd" d="M129.4 295C130.449 289.83 131 284.479 131 279C131 234.817 95.1828 199 51 199C47.6134 199 44.2759 199.21 41 199.619V201.635C44.2742 201.216 47.6119 201 51 201C94.0782 201 129 235.922 129 279C129 284.484 128.434 289.836 127.357 295H129.4Z"/>
</mask>
<path fill-rule="evenodd" clip-rule="evenodd" d="M129.4 295C130.449 289.83 131 284.479 131 279C131 234.817 95.1828 199 51 199C47.6134 199 44.2759 199.21 41 199.619V201.635C44.2742 201.216 47.6119 201 51 201C94.0782 201 129 235.922 129 279C129 284.484 128.434 289.836 127.357 295H129.4Z" fill="#6D58C1"/>
<path d="M129.4 295V297H131.035L131.36 295.398L129.4 295ZM41 199.619L40.7525 197.634L39 197.853V199.619H41ZM41 201.635H39V203.907L41.2539 203.619L41 201.635ZM127.357 295L125.4 294.592L124.897 297H127.357V295ZM131.36 295.398C132.436 290.098 133 284.614 133 279H129C129 284.345 128.463 289.563 127.44 294.602L131.36 295.398ZM133 279C133 233.713 96.2873 197 51 197V201C94.0782 201 129 235.922 129 279H133ZM51 197C47.5305 197 44.1104 197.216 40.7525 197.634L41.2475 201.604C44.4415 201.205 47.6963 201 51 201V197ZM39 199.619V201.635H43V199.619H39ZM41.2539 203.619C44.4441 203.211 47.697 203 51 203V199C47.5268 199 44.1043 199.221 40.7461 199.651L41.2539 203.619ZM51 203C92.9736 203 127 237.026 127 279H131C131 234.817 95.1828 199 51 199V203ZM127 279C127 284.346 126.448 289.561 125.4 294.592L129.315 295.408C130.42 290.11 131 284.622 131 279H127ZM127.357 297H129.4V293H127.357V297Z" fill="#6D58C1" mask="url(#path-1-outside-1)"/>
<path d="M330.563 297.563C332.516 295.611 332.516 292.445 330.563 290.492L298.743 258.672C296.791 256.72 293.625 256.72 291.672 258.672C289.72 260.625 289.72 263.791 291.672 265.743L319.957 294.028L291.672 322.312C289.72 324.264 289.72 327.43 291.672 329.383C293.625 331.336 296.791 331.336 298.743 329.383L330.563 297.563ZM37 299.028H327.028V289.028H37V299.028Z" fill="#6D58C1"/>
<path d="M45.5493 3.46448C43.5967 1.51184 40.4309 1.51184 38.4783 3.46448L6.65845 35.2843C4.70583 37.2369 4.70583 40.4027 6.65845 42.3553C8.61108 44.308 11.7769 44.308 13.7295 42.3553L42.0138 14.0711L70.2981 42.3553C72.2507 44.308 75.4165 44.308 77.3691 42.3553C79.3218 40.4027 79.3218 37.2369 77.3691 35.2843L45.5493 3.46448ZM47.0138 297.028L47.0138 7H37.0138L37.0138 297.028H47.0138Z" fill="#6D58C1"/>
</svg>
