<?xml version="1.0" encoding="iso-8859-1"?>
<!-- Generator: Adobe Illustrator 21.0.0, SVG Export Plug-In . SVG Version: 6.00 Build 0)  -->
<svg version="1.1" id="Capa_1" xmlns="http://www.w3.org/2000/svg" xmlns:xlink="http://www.w3.org/1999/xlink" x="0px" y="0px"
	 viewBox="0 0 511.998 511.998" style="enable-background:new 0 0 511.998 511.998;" xml:space="preserve">
<g>
	<g>
		<path d="M480.452,72.144H360.213c-4.142,0-7.5,3.358-7.5,7.5c0,4.142,3.358,7.5,7.5,7.5h120.238
			c9.125,0,16.548,7.423,16.548,16.548V368.74H15V103.692c0-9.125,7.423-16.548,16.548-16.548h120.243c4.142,0,7.5-3.358,7.5-7.5
			c0-4.142-3.358-7.5-7.5-7.5H31.548C14.152,72.144,0,86.296,0,103.692v288.581c0,17.396,14.152,31.548,31.548,31.548h151.827
			l-6.141,49.129h-9.412c-4.142,0-7.5,3.358-7.5,7.5c0,4.142,3.358,7.5,7.5,7.5h176.354c4.142,0,7.5-3.358,7.5-7.5
			c0-4.142-3.358-7.5-7.5-7.5h-9.412l-6.141-49.129H480.45c17.396,0,31.548-14.152,31.548-31.548V103.692
			C512,86.296,497.848,72.144,480.452,72.144z M192.351,472.951l6.141-49.129h115.017l6.14,49.129H192.351z M497,392.274
			c0,9.124-7.423,16.548-16.548,16.548H31.548c-9.125,0-16.548-7.423-16.548-16.548v-8.533h482V392.274z"/>
	</g>
</g>
<g>
	<g>
		<path d="M336.161,144.29h-0.516v-40.597c0-43.917-35.729-79.645-79.645-79.645c-43.916,0-79.645,35.729-79.645,79.645v40.597
			h-0.516c-12.976,0-23.532,10.556-23.532,23.532v64.129c0,57.177,46.517,103.693,103.693,103.693
			c57.176,0,103.693-46.517,103.693-103.693v-64.129C359.693,154.846,349.136,144.29,336.161,144.29z M256,39.047
			c35.645,0,64.645,29,64.645,64.645v40.597h-17.064v-40.597c0-26.236-21.345-47.581-47.581-47.581
			c-26.236,0-47.581,21.345-47.581,47.581v40.597h-17.064v-40.597h0C191.355,68.046,220.355,39.047,256,39.047z M288.582,103.693
			v40.597h-0.001H223.42v-40.597c0-17.965,14.616-32.581,32.581-32.581C273.966,71.112,288.582,85.728,288.582,103.693z
			 M344.693,231.951c0,48.906-39.788,88.693-88.693,88.693c-48.905,0-88.693-39.788-88.693-88.693v-64.129
			c0-4.705,3.828-8.532,8.532-8.532h160.322c4.705,0,8.532,3.827,8.532,8.532V231.951z"/>
	</g>
</g>
<g>
	<g>
		<path d="M275.386,193.178c-3.705-1.853-8.21-0.351-10.062,3.354l-32.064,64.129c-1.853,3.705-0.351,8.21,3.354,10.062
			c1.077,0.539,2.221,0.793,3.348,0.793c2.751,0,5.4-1.52,6.714-4.147l32.064-64.129
			C280.593,199.536,279.091,195.03,275.386,193.178z"/>
	</g>
</g>
<g>
	<g>
		<path d="M202.478,231.95l18.745-18.745c2.929-2.928,2.929-7.677,0-10.606c-2.929-2.929-7.678-2.929-10.606,0l-24.048,24.048
			c-2.929,2.929-2.929,7.678,0,10.606l24.048,24.048c1.464,1.464,3.384,2.197,5.303,2.197c1.919,0,3.839-0.732,5.303-2.197
			c2.929-2.929,2.929-7.678,0-10.606L202.478,231.95z"/>
	</g>
</g>
<g>
	<g>
		<path d="M325.432,226.647l-24.048-24.048c-2.929-2.929-7.678-2.929-10.606,0c-2.929,2.929-2.929,7.678,0,10.606l18.745,18.745
			l-18.745,18.745c-2.929,2.929-2.929,7.678,0,10.606c1.464,1.464,3.384,2.197,5.303,2.197s3.839-0.732,5.303-2.197l24.048-24.048
			C328.361,234.324,328.361,229.575,325.432,226.647z"/>
	</g>
</g>
<g>
</g>
<g>
</g>
<g>
</g>
<g>
</g>
<g>
</g>
<g>
</g>
<g>
</g>
<g>
</g>
<g>
</g>
<g>
</g>
<g>
</g>
<g>
</g>
<g>
</g>
<g>
</g>
<g>
</g>
</svg>
