<svg width="1440" height="911" viewBox="0 0 1440 911" fill="none" xmlns="http://www.w3.org/2000/svg">
<g clip-path="url(#clip0)">
<path d="M441.732 268.217C441.358 265.264 440.603 262.372 439.484 259.613C439.342 259.091 439.092 258.605 438.751 258.185C438.41 257.765 437.986 257.421 437.504 257.174C436.861 257.007 436.186 256.999 435.54 257.152L425.452 258.696C424.608 258.734 423.8 259.048 423.151 259.59C421.837 260.972 423.131 263.196 423.09 265.103C423.045 267.246 421.141 268.986 419.075 269.562C416.967 269.988 414.793 269.961 412.696 269.483L398.591 267.291C402.745 265.964 406.442 263.497 409.261 260.17C411.117 257.971 412.105 253.866 409.422 252.824C408.625 252.606 407.794 252.539 406.973 252.628C400.582 252.677 395.553 247.342 389.57 245.094C385.741 243.749 381.585 243.649 377.696 244.809C373.806 245.968 370.383 248.328 367.916 251.55L375.43 251.912C376.137 251.873 376.838 252.06 377.431 252.446C379.078 253.799 377.031 256.398 377.263 258.516C377.564 261.269 381.219 261.856 383.974 262.135C386.729 262.413 390.224 264.651 388.898 267.083C375.052 271.852 360.961 257.759 346.419 259.494C342.739 259.933 339.264 261.379 335.67 262.288C313.719 267.842 291.026 253.024 268.602 256.162C263.617 257.012 258.718 258.304 253.962 260.023C250.91 261.025 247.727 262.108 245.509 264.432C243.292 266.756 242.448 270.731 244.548 273.161C238.758 273.638 232.929 273.084 227.333 271.524C228.846 272.366 230.105 273.599 230.978 275.095C231.85 276.59 232.304 278.293 232.291 280.025C223.251 281.499 214.449 284.183 206.124 288.003C207.678 290.587 209.493 293.005 211.54 295.218L200.095 302.571C203.962 303.545 205.961 308.818 203.712 312.111C207.721 310.328 210.206 305.713 214.494 304.778C217.303 304.165 220.161 305.314 222.825 306.393C225.49 307.473 228.418 308.519 231.177 307.709C233.935 306.899 235.97 303.323 234.217 301.044C246.007 297.604 258.192 295.7 270.47 295.38C271.417 295.261 272.378 295.443 273.215 295.901C274.814 297.01 274.393 299.405 274.307 301.348C274.221 303.291 275.736 305.845 277.472 304.969C275.429 306.741 277.176 310.077 279.136 311.94C281.097 313.804 283.46 316.375 282.259 318.798C281.946 319.431 281.415 319.937 281.113 320.575C280.224 322.46 281.636 324.656 283.302 325.907C284.968 327.159 287.009 328.033 288.167 329.766C289.324 331.498 288.798 334.531 286.729 334.773L280.847 327.305C278.837 329.389 277.459 332 276.873 334.835C283.111 339.934 284.049 350.313 278.827 356.448C276.158 359.583 272.363 361.489 269.051 363.934C265.738 366.38 262.674 369.862 262.682 373.979C262.696 381.092 262.115 387.7 264.78 394.295C269.696 406.455 275.37 418.295 281.771 429.743C283.452 432.749 285.624 436.044 289.029 436.561C284.726 426.085 280.852 415.446 277.408 404.644C279.651 404.653 282.244 404.831 283.559 406.648C284.648 408.153 284.414 410.2 284.752 412.026C285.182 413.796 285.9 415.483 286.877 417.021L307.426 453.625C309.13 456.66 311.084 459.917 314.339 461.146C316.421 461.932 318.829 461.784 320.745 462.915C322.247 463.801 323.258 465.375 324.789 466.21C329.118 468.572 335.138 464.043 339.183 466.862C340.34 467.669 341.076 468.949 342.142 469.872C345.878 473.108 352.007 470.943 356.32 473.357C359.1 474.913 360.541 478.024 362.023 480.843C365.737 487.905 371.747 494.824 379.706 495.386C382.206 495.563 384.76 495.089 387.204 495.645C389.648 496.201 392.054 498.334 391.661 500.809C390.989 505.053 393.086 509.701 392.522 513.96C391.497 521.72 380.49 525.13 379.545 532.9C379.338 534.601 379.662 536.357 379.257 538.022C378.76 540.063 377.228 541.724 376.683 543.753C375.651 547.597 378.405 551.423 381.431 554.009C384.456 556.595 388.065 558.825 389.72 562.446C391.468 566.272 390.609 570.734 391.178 574.903C392.419 584.003 400.279 590.75 408.369 595.1C410.833 596.425 413.479 597.708 415.075 600.007C417.157 603.008 416.949 606.964 417.645 610.55C419.347 619.331 426.74 626.567 426.95 635.51C427.099 641.866 423.566 647.632 421.455 653.629C419.476 659.376 418.76 665.481 419.356 671.529C419.951 677.577 421.844 683.425 424.906 688.675C426.485 691.341 428.373 693.855 429.49 696.745C431.483 701.902 430.836 707.765 432.674 712.98C435.104 719.875 441.78 725.569 441.141 732.852C444.172 739.146 450.864 742.238 457.594 744.112L469.656 747.469C471.965 748.112 474.379 748.76 476.73 748.295C479.082 747.829 481.326 745.876 481.266 743.48C475.351 742.146 469.246 740.727 464.371 737.123C459.495 733.519 456.155 727.1 458.005 721.326C458.862 718.649 460.687 715.557 458.952 713.344C457.959 712.078 456.142 711.747 455.022 710.591C453.274 708.788 453.875 705.76 455.131 703.586C456.388 701.412 458.204 699.47 458.71 697.01C458.966 695.635 458.795 694.214 458.221 692.938C457.646 691.662 456.695 690.592 455.495 689.873C457.731 689.028 459.765 687.723 461.465 686.042C463.035 684.249 463.76 681.485 462.525 679.447C466.192 679.912 470.522 680.14 472.93 677.334C474.852 675.094 474.72 671.745 473.961 668.892C473.201 666.039 471.917 663.268 471.877 660.316C480.337 660.717 488.816 660.43 497.23 659.457C496.013 655.359 493.248 651.897 489.522 649.803C493.332 649.158 496.804 644.596 498.008 640.924C499.212 637.251 498.905 633.251 498.161 629.459C497.875 628.482 497.836 627.45 498.047 626.455C498.476 625.088 499.819 624.253 501.062 623.539L519.976 612.677C521.105 612.111 522.128 611.356 523.001 610.444C524.983 608.116 524.689 604.602 523.674 601.719C522.66 598.835 521.034 596.123 520.643 593.091C519.474 584.024 529.181 577.518 532.457 568.982C533.742 565.633 534.004 561.991 534.253 558.412C534.52 554.568 534.54 550.103 531.589 547.625C528.759 545.251 524.338 545.78 521.377 543.571C518.663 541.546 517.726 537.613 514.761 535.977C512.068 534.492 508.691 535.437 505.696 534.738C500.422 533.508 497.104 527.43 491.718 526.867C488.679 526.55 485.24 528.035 482.749 526.265C480.555 524.706 480.467 521.572 480.049 518.912C479.317 514.779 477.336 510.969 474.372 507.996C471.409 505.023 467.605 503.029 463.474 502.284C460.341 501.781 456.931 501.972 454.265 500.25C451.566 498.507 450.329 495.243 448.209 492.828C444.792 488.937 439.41 487.554 434.369 486.369L413.863 481.548C410.223 480.693 405.531 480.239 403.578 483.428C403 484.642 402.59 485.929 402.361 487.254C401.629 489.651 400.156 491.754 398.154 493.262C396.151 494.769 393.723 495.602 391.217 495.642C389.498 492.711 386.714 490.557 383.445 489.629C381.366 489.05 379.14 488.985 377.157 488.133C376.077 487.606 375.116 486.864 374.333 485.952C373.549 485.041 372.96 483.979 372.602 482.832C372.243 481.685 372.122 480.477 372.246 479.281C372.371 478.086 372.738 476.929 373.325 475.88C374.507 473.775 374.963 471.34 374.624 468.949C374.284 466.559 373.168 464.347 371.446 462.655C367.959 459.524 362.914 458.768 358.238 459.081C357.014 456.409 359.061 453.394 361.268 451.452C363.475 449.51 366.154 447.601 366.635 444.701C367.39 440.14 361.57 436.675 357.151 438.035C352.732 439.396 349.912 443.688 348.047 447.919C346.977 450.347 346.068 452.903 344.38 454.95C342.693 456.997 339.976 458.463 337.405 457.806C333.767 456.876 332.361 452.553 331.556 448.884C330.475 443.962 329.389 438.972 329.615 433.939C329.841 428.905 331.538 423.736 335.25 420.328C341.299 414.775 350.578 415.319 358.742 416.205C356.813 414.032 357.29 410.37 359.353 408.325C360.443 407.357 361.752 406.669 363.167 406.322C364.582 405.974 366.06 405.977 367.474 406.33C369.934 406.842 372.15 408.167 373.765 410.091C376.085 412.919 376.745 416.738 378.498 419.949C380.252 423.159 384.194 425.897 387.421 424.175C390.209 422.687 390.651 418.822 389.958 415.74C389.264 412.657 387.79 409.66 388.042 406.51C388.521 400.501 394.751 396.883 400.248 394.408C405.745 391.933 412.04 388.605 412.911 382.639C412.941 381.471 413.161 380.316 413.563 379.219C414.173 378.25 415.02 377.453 416.025 376.904C432.069 366.301 448.379 355.569 466.717 349.776C467.671 349.474 467.783 349.809 468.755 349.573C470.116 348.786 469.214 346.611 467.91 345.734C466.605 344.858 464.861 344.186 464.53 342.65C464.287 341.52 464.952 340.411 465.125 339.269C465.55 336.462 462.192 333.87 459.584 334.992C458.111 333.042 461.026 330.775 463.383 330.126C470.46 328.178 477.724 326.992 485.053 326.586C485.899 326.452 486.765 326.599 487.519 327.005C488.75 327.858 488.593 329.814 487.72 331.031C486.848 332.248 485.491 333.012 484.404 334.042C483.216 335.199 482.369 336.66 481.955 338.266C481.541 339.871 481.576 341.56 482.056 343.147C485.882 345.093 490.041 347.096 494.279 346.411C498.516 345.725 502.277 340.964 500.285 337.162C498.431 333.621 492.859 332.822 491.901 328.941C490.779 324.397 497.211 320.356 495.763 315.906C495.128 313.956 493.185 312.809 491.694 311.402C489.934 309.676 488.736 307.459 488.259 305.04C487.782 302.622 488.047 300.115 489.02 297.85C486.592 298.277 484.097 298.116 481.744 297.38C479.391 296.643 477.249 295.354 475.497 293.619C472.263 290.354 469.682 285.205 465.089 285.351C460.875 285.485 457.244 290.402 453.303 288.902C452.333 288.533 451.311 287.782 450.372 288.222C450.064 288.422 449.805 288.689 449.616 289.004C449.427 289.318 449.311 289.671 449.278 290.037C448.277 294.825 450 300.281 447.39 304.419C444.55 308.922 437.981 309.546 434.538 313.606C432.669 315.81 431.945 318.78 430.227 321.104C428.51 323.428 424.863 324.905 422.802 322.88C423.815 320.797 424.092 318.432 423.587 316.172C423.082 313.911 421.825 311.889 420.022 310.435C418.108 309.186 416.044 308.183 413.88 307.448C411.462 306.424 409.162 305.142 407.02 303.624C405.946 302.977 405.074 302.044 404.501 300.929C404.047 299.534 404.108 298.022 404.673 296.668C405.719 293.67 407.563 291.016 410.007 288.99C412.45 286.965 415.401 285.645 418.54 285.174C421.285 284.8 424.48 284.932 426.296 282.841C427.258 281.734 427.762 280.061 429.157 279.611C430.049 279.432 430.976 279.546 431.798 279.937L442.043 283.543C443.186 284.059 444.445 284.267 445.693 284.146C446.312 284.063 446.877 283.749 447.274 283.266C447.67 282.784 447.87 282.169 447.833 281.546C447.505 279.845 444.887 279.028 445.126 277.312C445.259 276.756 445.558 276.253 445.983 275.871C449.681 271.935 454.202 268.866 459.225 266.883C464.247 264.899 469.646 264.051 475.034 264.398C476.328 266.522 474.282 269.037 472.581 270.85C470.879 272.663 469.512 275.903 471.569 277.298C472.413 277.729 473.351 277.94 474.297 277.913C476.82 278.254 479.271 278.998 481.558 280.115C485.099 281.656 488.571 283.341 491.975 285.172C491.675 282.927 491.388 280.563 492.238 278.464C493.089 276.365 495.507 274.719 497.62 275.536C499.655 276.324 500.699 279.019 502.868 279.266C505.76 279.595 506.902 275.322 505.693 272.673C504.485 270.024 502.093 267.806 501.893 264.901C501.759 262.942 502.504 260.511 500.939 259.325C500.382 258.969 499.75 258.747 499.092 258.677L460.008 251.485C457.687 251.058 454.334 251.385 454.231 253.743C454.174 255.059 455.349 256.361 454.829 257.571C454.273 258.862 452.447 258.744 451.118 259.201C449.055 259.91 448.019 262.359 448.218 264.532C448.58 266.69 449.416 268.742 450.666 270.539C448.123 269.476 444.274 269.281 441.732 268.217Z" fill="#F8F8FB"/>
<path d="M410.547 235.04C408.082 234.224 405.427 234.186 402.94 234.931C400.453 235.676 398.255 237.168 396.644 239.204C396.001 240.051 395.46 241.219 395.999 242.136C396.772 243.452 398.74 242.932 400.191 242.462C402.323 241.7 404.645 241.644 406.811 242.304C408.174 242.772 409.393 243.598 410.761 244.049C411.428 244.327 412.157 244.419 412.871 244.315C413.586 244.21 414.258 243.913 414.817 243.456C415.756 242.498 415.815 241.009 415.817 239.667C415.882 239.219 415.846 238.761 415.712 238.328C415.577 237.894 415.348 237.497 415.04 237.163C414.493 236.846 413.877 236.664 413.245 236.632C411.829 236.37 410.549 235.622 409.625 234.517" fill="#F8F8FB"/>
<path d="M424.64 231.116C424.088 231.086 423.538 231.199 423.043 231.443C422.547 231.687 422.123 232.054 421.81 232.509C421.498 232.965 421.307 233.493 421.258 234.043C421.209 234.593 421.302 235.147 421.528 235.651C423.222 236.113 424.991 236.228 426.731 235.99C427.599 235.855 428.407 235.467 429.054 234.873C429.701 234.28 430.158 233.508 430.368 232.656C428.32 233.028 426.206 232.625 424.44 231.524" fill="#F8F8FB"/>
<path d="M471.923 224.563C467.313 225.543 462.834 227.065 458.581 229.095C460.586 229.866 462.29 231.261 463.443 233.073C464.596 234.886 465.136 237.021 464.983 239.164C464.803 239.987 464.824 240.84 465.044 241.653C465.534 242.841 466.954 243.287 468.202 243.592C470.445 244.274 472.787 244.573 475.129 244.476C476.301 244.415 477.439 244.062 478.44 243.45C479.441 242.839 480.274 241.987 480.863 240.972C481.202 240.009 481.601 239.068 482.055 238.154C485.048 233.597 493.937 239.107 497.149 234.702C498.281 233.151 498.177 230.815 499.653 229.586C500.416 229.05 501.3 228.713 502.226 228.604C508.687 227.32 515.213 226.391 521.775 225.82C524.884 225.549 528.936 224.433 528.962 221.312C517.251 219.012 505.108 220.645 494.421 225.958C490.571 227.887 485.478 231.944 481.769 229.387C480.38 228.43 480.449 225.852 478.538 224.775C476.584 223.675 473.997 224.122 471.923 224.563Z" fill="#F8F8FB"/>
<path d="M510.222 231.725L515.719 232.782C514.707 232.737 513.698 232.908 512.757 233.285C511.817 233.661 510.967 234.234 510.266 234.964C509.564 235.695 509.027 236.567 508.689 237.521C508.351 238.476 508.22 239.492 508.306 240.502C513.454 242.221 519.067 240.548 524.49 240.776C529.913 241.005 536.222 244.879 535.297 250.227C535.017 251.844 534.082 253.46 534.568 255.028C534.909 256.127 535.878 256.906 536.425 257.918C537.564 260.027 536.654 262.694 535.214 264.611C533.775 266.528 531.841 268.057 530.578 270.094C527.436 275.161 529.221 281.711 531.092 287.371C531.633 289.51 532.633 291.506 534.021 293.22C536.794 296.168 541.313 296.425 545.36 296.484C548.305 296.527 551.679 296.381 553.542 294.099C555.974 291.12 554.273 286.471 555.874 282.974C557.328 279.799 561.033 278.436 564.389 277.47C570.539 275.7 576.805 274.195 582.618 271.521C589.837 268.201 596.583 263.026 604.518 262.599C606.744 262.479 609.025 262.742 611.169 262.132C613.313 261.522 615.35 259.668 615.187 257.445C615.049 255.545 613.441 254.15 612.186 252.718C610.93 251.286 609.944 249.084 611.098 247.569L631.894 243.685C630.42 239.667 629.272 234.376 632.659 231.761C633.882 230.818 635.518 230.441 636.559 229.3C638.332 227.356 637.44 224.007 635.393 222.354C633.346 220.7 630.577 220.317 627.955 220.099C618.836 219.341 609.665 219.842 600.528 220.343C582.668 221.322 564.808 222.301 546.949 223.28C543.353 223.477 539.202 223.176 535.905 224.402C533.113 225.441 531.128 227.347 527.936 228.016C522.042 229.253 515.555 228.416 510.222 231.725Z" fill="#F8F8FB"/>
<path d="M608.706 275.178C608.146 275.09 607.573 275.22 607.106 275.541C606.797 275.881 606.614 276.317 606.585 276.775C606.23 278.799 606.653 280.882 607.769 282.608C608.337 283.454 609.122 284.133 610.041 284.574C610.961 285.014 611.981 285.201 612.997 285.114C615.472 284.798 617.297 282.687 619.572 281.656C623.08 280.069 637.975 277.596 627.671 272.029C624.12 270.11 621.826 271.804 619.027 273.067C615.843 274.696 612.275 275.426 608.706 275.178V275.178Z" fill="#F8F8FB"/>
<path d="M698.956 228.583C697.753 229.074 696.747 229.95 696.094 231.074C695.793 231.645 695.723 232.309 695.899 232.93C696.074 233.551 696.482 234.08 697.037 234.409C697.486 234.572 697.962 234.648 698.44 234.632L703.332 234.778C705.411 234.84 708.007 235.283 708.565 237.286C708.98 238.773 708.052 240.684 709.172 241.746C709.652 242.119 710.23 242.344 710.836 242.395C712.447 242.809 714.13 242.864 715.765 242.555C719.325 241.6 717.454 239.427 718.575 237.493C720.291 234.533 719.994 236.325 723.016 234.628C725.248 233.376 728.133 231.103 726.27 227.91C723.03 222.358 703.737 226.197 698.956 228.583Z" fill="#F8F8FB"/>
<path d="M795.515 225.791L792.674 226.17C786.269 227.025 779.826 227.888 773.657 229.811C776.327 230.867 779.129 231.555 781.985 231.855C783.558 231.932 785.119 232.154 786.651 232.518C789.376 233.33 792.122 235.424 794.755 234.351C796.387 233.686 796.92 231.986 798.272 231.085C799.206 230.463 802.747 229.457 803.143 228.829C806.344 223.754 797.975 225.463 795.515 225.791Z" fill="#F8F8FB"/>
<path d="M807.989 238.702C804.195 240.824 800.674 243.402 797.506 246.379C796.171 247.634 794.808 249.194 794.929 251.022C795.09 253.452 797.678 254.861 799.92 255.81L809.001 259.655C810.103 258.102 809.094 255.959 807.956 254.433C806.817 252.907 805.464 251.141 805.967 249.305C806.541 247.21 809.096 246.496 811.239 246.135C814.729 245.547 824.146 245.594 823.015 239.968C821.681 233.339 811.493 236.743 807.989 238.702Z" fill="#F8F8FB"/>
<path d="M806.163 613.829C805.298 616.332 805.216 619.281 806.712 621.466C808.39 623.918 811.748 624.832 814.654 624.21C817.547 623.44 820.126 621.782 822.027 619.469C823.766 617.532 825.197 615.338 826.269 612.965C827.765 609.268 828.82 605.407 829.412 601.463L832.232 586.659C832.862 583.35 832.837 573.207 826.756 576.512C825.095 577.415 821.249 584.543 819.508 586.564C816.37 590.208 815.955 593.743 814.303 598.156C812.234 603.685 808.076 608.292 806.163 613.829Z" fill="#F8F8FB"/>
<path d="M1127.35 689.587C1125.36 688.81 1123.42 687.891 1121.57 686.836C1119.7 691.956 1118.71 697.353 1118.64 702.801L1132.25 695.096C1134.3 693.937 1136.62 692.326 1136.58 689.973C1136.6 689.683 1136.54 689.393 1136.4 689.133C1136.27 688.874 1136.07 688.655 1135.83 688.5C1135.52 688.378 1135.19 688.34 1134.87 688.388C1132.85 688.556 1131.01 689.55 1129.11 690.24C1127.2 690.931 1124.98 691.296 1123.23 690.271" fill="#F8F8FB"/>
<path d="M1199.17 694.161C1197.68 694.568 1196.22 695.092 1194.81 695.728C1191.68 697.318 1189.56 700.337 1186.74 702.431C1184.05 704.435 1180.81 705.535 1177.63 706.605C1176.7 707.432 1177.13 709.097 1178.14 709.823C1179.24 710.444 1180.49 710.726 1181.74 710.631C1185.04 710.704 1188.52 710.736 1191.42 709.141C1193.05 708.083 1194.57 706.872 1195.97 705.525C1199.36 702.702 1203.42 700.839 1207.44 699.04C1208.9 698.487 1210.26 697.678 1211.44 696.65C1213.96 694.16 1214.14 690.319 1210.5 689.472C1207.55 688.787 1201.98 693.254 1199.17 694.161Z" fill="#F8F8FB"/>
<path d="M1230.91 673.43C1231.07 671.717 1230.84 669.989 1230.24 668.377C1229.64 666.765 1228.68 665.31 1227.43 664.124C1227.4 667.551 1227.29 671.203 1225.36 674.037C1223.99 676.057 1221.84 677.421 1220.33 679.345C1218.83 681.268 1218.16 684.318 1219.92 686.006C1221.05 686.864 1222.43 687.338 1223.84 687.356C1227.36 687.77 1231.42 688 1233.89 685.462C1235.23 684.076 1235.89 682.024 1237.53 681.005C1238.14 680.749 1238.69 680.358 1239.13 679.862C1239.8 678.785 1238.73 677.366 1237.52 676.978C1236.3 676.59 1234.97 676.773 1233.75 676.404C1232.53 676.036 1231.42 674.666 1232.04 673.558" fill="#F8F8FB"/>
<path d="M1174.5 547.759C1172.66 548.208 1170.75 548.32 1168.87 548.092C1165.74 547.516 1163.3 545.159 1160.78 543.226C1154.78 538.654 1147.48 536.105 1139.93 535.942C1133.07 535.813 1126.14 537.672 1119.4 536.375C1119.84 538.824 1121.94 540.661 1124.18 541.753C1126.41 542.845 1128.88 543.394 1131.13 544.464C1134.73 546.194 1137.58 549.163 1139.17 552.827C1139.89 554.517 1140.35 556.355 1141.44 557.83C1143.68 560.845 1147.93 561.507 1151.68 561.26C1156.56 560.939 1161.67 559.533 1166.21 561.354C1169.69 562.747 1172.18 565.791 1175.09 568.158C1177.99 570.525 1182.08 572.281 1185.41 570.574C1181.95 569.452 1178.94 567.253 1176.81 564.297C1174.69 561.342 1173.56 557.784 1173.6 554.144C1176.87 554.444 1186.29 554.328 1185.78 548.771C1185.35 544.062 1177.31 547.251 1174.5 547.759Z" fill="#F8F8FB"/>
<path d="M1131.72 586.076C1132.3 582.891 1135.48 580.079 1134.49 576.997C1133.8 574.865 1131.33 573.812 1129.09 573.76C1126.85 573.707 1124.66 574.374 1122.42 574.437C1120.96 574.359 1119.5 574.38 1118.05 574.499C1113.6 575.229 1110.87 579.885 1106.68 581.541C1104.13 582.548 1101.27 582.355 1098.63 583.051C1092.62 584.631 1088.81 590.31 1084.61 594.889C1077.83 602.254 1068.98 607.411 1059.23 609.692C1055.81 610.484 1052.14 610.99 1049.42 613.209C1045.83 616.148 1044.94 621.186 1044.14 625.762C1041.93 638.398 1038.55 650.801 1034.05 662.812L1048.32 664.635C1051.03 664.981 1053.84 665.32 1056.46 664.516C1058.36 663.8 1060.16 662.841 1061.81 661.665C1068.17 657.719 1075.28 655.151 1082.69 654.128C1086.43 653.615 1090.34 653.521 1093.85 654.91C1097.36 656.299 1100.37 659.449 1100.66 663.21C1102.18 662.738 1103.79 662.687 1105.34 663.062C1106.88 663.438 1108.29 664.225 1109.42 665.341C1111.66 667.618 1113.12 670.539 1113.61 673.692C1113.98 675.644 1114.36 677.983 1116.17 678.802C1117.65 679.471 1119.34 678.751 1120.96 678.622C1126.45 678.183 1131 684.58 1136.39 683.478C1142.18 682.297 1143.6 673.635 1149.24 671.9C1152.48 670.904 1157.02 672.115 1158.58 669.101C1159.94 666.444 1157.21 663.378 1157.5 660.403C1157.84 656.74 1162.16 655.185 1165.49 653.622C1176.98 648.234 1182.43 632.777 1176.86 621.378C1173.57 614.623 1167.08 609.307 1165.88 601.887C1164.96 596.178 1167.21 589.521 1163.57 585.027C1161.72 582.742 1158.58 581.48 1157.48 578.752C1156.79 577.035 1157.07 575.087 1156.69 573.274C1156.32 571.46 1154.74 569.563 1152.95 570.033C1147.75 571.398 1146.09 587.458 1143.3 591.36C1139.07 597.292 1130.39 593.384 1131.72 586.076Z" fill="#F8F8FB"/>
<path d="M1035.63 553.827C1033.85 553.329 1031.91 552.838 1030.21 553.55C1028.5 554.262 1027.51 556.762 1028.88 558.002C1039.56 557.585 1050.32 557.172 1060.92 558.623C1073.13 560.296 1085.21 564.438 1097.47 563.22C1090.47 561.153 1083.35 559.501 1076.15 558.271L1064.14 555.978C1060.92 555.303 1057.67 554.8 1054.39 554.471C1047.54 553.905 1042.36 555.716 1035.63 553.827Z" fill="#F8F8FB"/>
<path d="M1046.33 516.601C1045.44 516.527 1044.34 516.464 1043.88 517.226C1043.44 517.955 1043.94 518.918 1043.71 519.736C1043.39 520.853 1041.92 521.138 1040.77 520.986C1039.62 520.834 1038.37 520.47 1037.35 521.025C1036.83 521.379 1036.45 521.891 1036.24 522.484C1036.04 523.078 1036.04 523.721 1036.23 524.317C1036.65 525.501 1037.32 526.577 1038.21 527.467C1039.72 529.37 1041.44 531.095 1043.34 532.611C1047.01 535.322 1051.99 536.629 1054.3 540.565C1054.63 541.328 1055.13 542.004 1055.76 542.536C1056.87 543.24 1058.32 542.705 1059.52 542.158L1063.71 540.243C1064.47 539.971 1065.14 539.512 1065.67 538.91C1066.63 537.611 1066.04 535.763 1065.24 534.363C1064.43 532.963 1063.4 531.514 1063.58 529.909C1063.88 527.048 1067.56 525.953 1069.08 523.505C1070.6 521.037 1069.61 517.857 1069.78 514.96C1069.99 511.574 1072.12 507.168 1068.69 504.638C1065.78 502.487 1063 504.475 1060.91 506.849C1056.51 511.856 1054.42 517.278 1046.33 516.601Z" fill="#F8F8FB"/>
<path d="M1071.77 465.998C1073.2 468.739 1076.19 470.374 1077.75 473.043C1079.44 475.935 1079.25 479.673 1081.08 482.476C1082.96 485.353 1086.75 486.88 1087.81 490.152C1088.96 493.724 1086.35 498.065 1088.43 501.186C1088.82 501.696 1089.31 502.12 1089.87 502.431C1090.43 502.741 1091.05 502.932 1091.69 502.991C1092.33 503.049 1092.97 502.975 1093.58 502.772C1094.19 502.568 1094.75 502.241 1095.23 501.81C1096.1 500.853 1096.57 499.591 1096.54 498.292C1096.5 496.993 1095.95 495.76 1095.02 494.857C1093.78 493.731 1092.01 493.245 1090.98 491.93C1090.44 491.171 1090.09 490.301 1089.94 489.384C1089.37 486.739 1089.46 483.997 1090.2 481.395C1090.47 480.734 1090.54 480.006 1090.4 479.305C1089.94 477.956 1088.11 477.861 1086.83 477.235C1083.92 475.814 1083.99 471.705 1084.5 468.506C1084.16 470.636 1076.57 467.013 1075.77 465.807C1074.2 463.41 1075.06 458.786 1074.74 456.138C1071.34 457.78 1070.02 462.648 1071.77 465.998Z" fill="#F8F8FB"/>
<path d="M995.335 508.16C993.934 506.593 991.825 504.953 989.947 505.898C988.515 506.619 988.121 508.601 988.682 510.104C989.366 511.563 990.419 512.818 991.737 513.746C995.65 516.972 999.863 519.885 1003.28 523.636C1009.38 530.348 1012.62 539.406 1019.26 545.59C1020.6 547.024 1022.37 547.981 1024.3 548.314C1026.23 548.494 1028.41 547.256 1028.63 545.325C1028.81 543.734 1027.7 542.31 1026.62 541.131C1024.04 538.325 1021.21 535.741 1018.78 532.808C1017.65 531.681 1016.95 530.205 1016.77 528.622C1016.76 527.043 1018.2 525.39 1019.73 525.781C1017.87 525.305 1016.49 522.205 1013.76 521.622C1011.48 521.135 1010.92 522.548 1008.21 521.383C1003.03 519.161 998.963 512.222 995.335 508.16Z" fill="#F8F8FB"/>
<path d="M1117.07 355.514C1115.58 355.072 1114.12 354.55 1112.69 353.95C1108.84 352.796 1103.75 355.623 1104.27 359.606C1104.61 362.253 1107.07 364.037 1108.43 366.333C1110.45 369.737 1109.91 374.055 1108.85 377.868C1108.59 379.048 1108.09 380.164 1107.39 381.15C1106.42 382.19 1105.25 383.032 1103.95 383.629C1098.75 386.542 1094.17 390.434 1090.46 395.09C1090.05 395.52 1089.77 396.05 1089.64 396.625C1089.46 397.97 1090.81 398.95 1091.58 400.072C1093.27 402.563 1092.05 405.916 1092.21 408.927C1092.19 409.352 1092.27 409.778 1092.46 410.162C1092.64 410.546 1092.92 410.877 1093.27 411.123C1094.29 411.643 1095.51 410.76 1096.06 409.755C1097.9 406.421 1096.51 401.068 1099.97 399.46C1100.62 399.156 1101.41 399.028 1101.85 398.454C1102.54 397.544 1101.87 396.196 1102.22 395.108C1102.75 393.475 1104.98 393.401 1106.7 393.474C1109.65 393.597 1112.6 393.204 1115.42 392.312C1116.53 392.049 1117.53 391.468 1118.31 390.64C1119.34 389.352 1119.25 387.52 1119.04 385.882C1118.01 377.717 1115.42 369.825 1111.42 362.633C1114.46 363.02 1117.76 363.356 1120.37 361.775C1121.84 360.89 1123.6 358.243 1122.87 356.441C1121.72 353.592 1119.64 355.99 1117.07 355.514Z" fill="#F8F8FB"/>
<path d="M728.218 400.42C728.581 402.367 728.937 404.417 728.299 406.292C727.661 408.167 725.654 409.733 723.759 409.159C722.288 408.713 721.439 407.234 720.394 406.106C714.586 399.836 701.482 403.466 697.894 395.709C696.43 392.543 697.425 388.75 696.426 385.408C695.796 383.476 694.542 381.809 692.862 380.667C691.181 379.525 689.169 378.974 687.141 379.1C685.291 379.367 683.491 379.905 681.798 380.695C670.453 385.238 658.544 388.217 646.396 389.549C644.088 389.69 641.804 390.105 639.594 390.787C634.606 392.595 631.198 397.219 628.773 401.938C626.348 406.657 624.557 411.765 621.306 415.957C617.888 420.363 613.099 423.449 608.632 426.786C606.912 427.895 605.479 429.396 604.452 431.167C603.483 433.156 603.538 435.468 603.613 437.678L604.526 464.522C604.644 467.975 604.791 471.551 606.336 474.641C608.266 478.499 612.078 481.026 614.723 484.435C617.422 487.938 618.828 492.265 618.702 496.685C618.646 498.462 618.47 500.564 619.854 501.68C620.696 502.226 621.681 502.51 622.684 502.494L658.996 505.466C665.383 505.989 672.462 506.849 676.632 511.715C678.6 514.012 680.181 517.315 683.196 517.561C684.489 517.667 685.747 517.136 687.041 517.033C690.304 516.775 693.17 519.252 694.979 521.98C697.717 526.137 698.96 531.103 698.504 536.06C698.207 539.172 697.242 542.197 697.034 545.316C696.243 557.184 706.304 567.495 706.499 579.387C706.613 586.382 703.293 592.918 700.055 599.12C705.28 607.036 701.002 617.577 703.082 626.831C705.055 635.611 712.376 642.484 714.2 651.296C715.035 655.33 715.083 660.295 718.641 662.372C720.201 663.133 721.932 663.48 723.665 663.378C734.121 663.502 744.458 661.149 753.83 656.511C758.229 654.328 762.788 651.07 763.556 646.22C764.175 642.309 762.192 637.934 764.21 634.527C766.589 630.512 772.684 630.83 776.184 627.743C781.863 622.734 777.435 613.183 779.736 605.969C781.804 599.485 788.923 596.041 792.452 590.221C793.841 587.718 794.837 585.017 795.407 582.212C797.023 575.508 798.03 568.671 798.413 561.786C798.507 557.602 798.816 553.426 799.338 549.274C803.142 525.637 826.511 509.808 834.098 487.1C834.822 484.932 835.163 482.043 833.233 480.816C832.089 480.27 830.792 480.134 829.559 480.432L812.82 482.542C810.741 482.804 808.537 483.049 806.628 482.185C804.719 481.322 803.35 478.906 804.363 477.072C807.206 471.922 801.358 465.415 798.76 460.137C791.763 445.927 783.43 432.414 773.875 419.78C773.264 419.131 772.881 418.299 772.784 417.412L777.535 417.57C775.931 411.816 773.285 405.519 767.694 403.414C764.544 402.227 761.055 402.638 757.694 402.821C748.067 403.347 737.746 401.894 728.218 400.42Z" fill="#F8F8FB"/>
<path d="M757.702 270.745C760.221 273.42 763.044 276.256 766.689 276.723C773.127 277.546 777.756 270.889 780.703 265.106C780.812 266.58 781.492 267.954 782.598 268.934C783.705 269.915 785.15 270.426 786.626 270.357C788.215 270.09 789.732 269.497 791.081 268.615C803.837 261.645 818.124 257.951 832.66 257.867C832.521 256.766 832.794 255.652 833.427 254.74C834.06 253.829 835.009 253.184 836.089 252.931C839.045 252.345 841.707 254.9 843.133 257.554C844.558 260.208 845.447 263.285 847.712 265.272C849.977 267.258 854.363 267.172 855.257 264.295C856.116 261.533 853.239 259.177 850.848 257.549C848.458 255.92 845.938 252.906 847.548 250.503C859.761 247.8 872.05 245.086 884.548 244.549C886.675 244.623 888.795 244.258 890.776 243.476C892.682 242.541 894.196 240.418 893.684 238.357C890.957 238.998 888.1 238.813 885.479 237.824C882.858 236.835 880.59 235.088 878.966 232.806C896.307 231.375 914.751 230.155 930.119 238.315C931.963 242.274 922.564 245.568 925.079 249.138C925.881 250.277 927.488 250.411 928.881 250.437C939.56 250.635 950.301 250.829 960.86 249.217C964.719 248.628 968.616 247.796 972.49 248.274C978.943 249.07 984.462 253.375 990.81 254.779C993.394 255.35 996.291 255.369 998.469 253.867C1000.65 252.364 1001.58 248.942 999.799 246.988C1005.78 241.13 1015.7 242.582 1023.58 245.387C1031.47 248.191 1038.94 252.714 1047.28 253.339C1053.27 253.787 1059.34 252.178 1065.25 253.201C1068.97 253.844 1072.42 255.497 1076.06 256.513C1082.92 258.434 1090.19 258.028 1097.32 258.121C1115.52 258.366 1133.52 261.942 1150.43 268.673C1152.63 269.389 1154.64 270.58 1156.33 272.161C1157.91 273.846 1158.71 276.464 1157.65 278.513L1140.18 275.96C1141.83 279.2 1146.08 279.753 1149.54 280.871C1153 281.989 1156.59 285.808 1154.51 288.79C1150.76 287.597 1147.37 291.344 1145.47 294.791C1143.58 298.239 1141.27 302.367 1137.35 302.577C1133.83 302.765 1129.58 299.771 1127.28 302.444C1130.45 306.44 1133.16 310.775 1135.37 315.371C1137.63 320.089 1139.25 326.034 1136.19 330.279C1135.7 331.037 1134.97 331.603 1134.12 331.881C1131.62 332.514 1130 329.456 1128.2 327.602C1125.94 325.266 1122.53 324.605 1119.47 323.509C1116.41 322.414 1113.19 320.259 1112.95 317.018C1112.8 315.002 1113.86 313.127 1114.65 311.264C1115.96 308.123 1116.54 304.72 1116.33 301.32C1116.16 298.585 1115.39 295.74 1113.43 293.829C1111.46 291.918 1108.07 291.311 1105.96 293.062C1104.98 293.878 1104.19 295.185 1102.91 295.234C1100.65 295.32 1098.92 291.384 1097.1 292.727C1097.32 294.159 1097.02 295.62 1096.27 296.855C1090.84 301.57 1082.52 299.575 1075.53 301.241C1072.21 302.192 1069.02 303.581 1066.07 305.372C1064.96 305.845 1064.02 306.635 1063.36 307.642C1062.49 309.337 1063.45 311.508 1064.99 312.635C1066.62 313.635 1068.45 314.261 1070.36 314.466C1078.88 316.08 1087.52 318.578 1094.25 324.05C1100.97 329.522 1105.38 338.568 1103.25 346.973L1086.45 330.92C1087.09 337.66 1087.45 344.42 1087.54 351.197C1087.65 352.521 1087.47 353.852 1087.01 355.098C1085.81 357.743 1082.56 358.633 1079.72 359.217C1078.93 359.367 1078.18 359.683 1077.52 360.144C1076.86 360.605 1076.3 361.201 1075.89 361.892C1075.47 362.583 1075.21 363.353 1075.11 364.153C1075.02 364.953 1075.09 365.763 1075.34 366.532C1076.35 369.826 1078.87 372.395 1081.17 374.954C1083.48 377.513 1085.75 380.422 1086.05 383.854C1086.36 387.287 1083.77 391.156 1080.33 390.917C1077.72 390.736 1075.79 388.404 1074.68 386.04C1073.57 383.676 1072.9 381.042 1071.23 379.034C1066.18 372.954 1054.83 375.559 1050.3 369.078C1049.14 370.387 1048.34 371.97 1047.97 373.675C1047.6 375.381 1047.67 377.153 1048.18 378.824C1050.29 377.505 1053.17 378.73 1054.75 380.646C1056.34 382.563 1057.08 385.02 1058.33 387.172C1060 390.076 1062.67 392.651 1062.91 395.997C1062.84 397.262 1062.87 398.53 1062.97 399.792C1063.39 401.819 1065.1 403.275 1066.29 404.969C1069.05 408.912 1068.92 414.328 1067.13 418.802C1065.35 423.275 1062.15 427.013 1058.98 430.637C1053.44 436.967 1047.79 443.26 1041.23 448.517C1039.35 450.017 1037.35 451.492 1036.19 453.589C1035.02 455.686 1034.96 458.63 1036.75 460.225C1035.47 460.289 1033.17 460.92 1031.89 460.984C1031.44 455.838 1031.34 450.667 1031.59 445.507C1026.53 443.076 1021.08 449.586 1021.73 455.164C1022.39 460.742 1026.42 465.218 1029.29 470.044C1031.39 473.573 1032.96 477.688 1032.25 481.734C1031.55 485.781 1027.94 489.514 1023.85 489.157C1017.34 488.589 1014.62 479.247 1008.18 478.178C1007.61 478.044 1007.01 478.103 1006.48 478.346C1005.52 478.871 1005.36 480.151 1005.3 481.241C1005.04 486.59 1004.81 492.152 1006.9 497.084C1009.95 504.299 1017.85 510.358 1016.19 518.016C1007.27 513.871 1002.64 503.87 1000.53 494.264C998.425 484.658 998.074 474.573 994.301 465.492C991.435 469.164 985.412 466.128 982.794 462.275C980.312 458.622 978.784 454.397 976.376 450.695C973.967 446.993 970.278 443.678 965.867 443.474C961.241 443.261 957.23 446.435 953.702 449.434C950.801 451.9 947.822 454.463 946.127 457.873C943.659 462.833 944.305 468.682 944.186 474.221C944.057 480.21 942.788 486.528 938.706 490.912C934.625 495.297 927.091 496.824 922.589 492.872C920.239 490.81 919.101 487.728 918.087 484.769C913.201 470.509 909.132 455.982 905.899 441.258C905.143 444.619 902.192 448.95 899.373 446.971C898.74 446.438 898.228 445.778 897.869 445.033C892.611 436.121 882.873 430.776 873.034 427.57C863.195 424.365 852.844 422.87 843.114 419.347C837.661 417.373 832.454 414.779 827.593 411.616C826.354 413.437 825.63 415.558 825.499 417.757C825.367 419.955 825.833 422.148 826.847 424.103C829.005 427.924 833.889 430.135 838.07 428.8C840.23 428.109 842.055 426.61 844.198 425.869C846.342 425.128 849.219 425.492 850.157 427.557C851.054 429.534 849.698 431.925 850.37 433.99C851.395 437.133 856.136 437.375 857.794 440.236C859.028 442.365 858.013 445.191 856.252 446.909C854.49 448.626 852.14 449.568 849.99 450.764C843.014 454.643 838.053 461.265 831.956 466.417C825.86 471.57 817.258 475.331 809.992 472.026C811.724 463.256 801.277 456.818 799.355 448.087C798.722 445.213 799.05 442.161 798.147 439.361C796.84 435.306 793.242 432.518 790.291 429.446C786.712 425.679 783.924 421.233 782.091 416.371C780.258 411.508 779.417 406.328 779.619 401.136C779.778 397.528 780.441 393.861 779.619 390.344C778.797 386.827 775.885 383.423 772.277 383.582C764.036 383.946 753.654 384.559 749.33 377.534C747.787 375.027 747.115 371.354 749.347 369.433C750.92 368.078 753.244 368.206 755.311 368.409L773.879 370.236C778.222 370.663 782.916 371.016 786.643 368.745C790.37 366.475 791.985 360.448 788.534 357.777C786.012 355.825 781.495 355.931 780.762 352.828C780.152 350.244 783.012 347.311 781.467 345.152C780.36 343.603 777.869 344.033 776.36 345.194C774.851 346.355 773.756 348.052 772.067 348.931C769.104 350.473 765.563 349.006 762.376 348.008C759.188 347.011 754.914 346.926 753.368 349.887C751.639 353.198 754.902 357.537 753.186 360.855C750.917 365.242 743.233 362.744 740.047 366.518C736.39 370.848 742.535 377.304 741.302 382.835C739.728 383.615 737.978 383.973 736.224 383.875C734.47 383.776 732.772 383.224 731.295 382.273C729.842 381.285 728.684 379.922 727.944 378.328C727.205 376.734 726.911 374.97 727.094 373.223C727.399 370.734 728.696 368.194 727.827 365.843C727.124 363.942 725.215 362.81 723.441 361.829L705.397 351.858C703.722 354.966 705.84 358.819 708.489 361.153C711.137 363.487 714.455 365.245 716.195 368.317C717.296 370.446 717.543 372.914 716.885 375.218C716.227 377.522 714.715 379.488 712.657 380.715C712.399 380.893 712.105 381.013 711.797 381.067C711.488 381.121 711.171 381.107 710.868 381.027C710.58 380.858 710.329 380.633 710.13 380.365C709.931 380.097 709.787 379.792 709.708 379.467C706.524 371.32 701.744 363.287 694.102 359.031C686.46 354.775 675.479 355.65 670.468 362.819C669.277 364.522 668.479 366.463 667.442 368.264C661.933 377.829 650.122 382.359 639.088 382.063C638.008 382.122 636.935 381.87 635.995 381.336C634.211 380.104 634.292 377.491 634.565 375.341L635.723 366.216C635.956 364.384 636.293 362.359 637.743 361.215C639.787 359.603 642.736 360.62 645.339 360.583C647.311 360.491 649.207 359.794 650.771 358.588C652.334 357.381 653.488 355.724 654.077 353.839C654.603 351.936 654.6 349.926 654.067 348.025C653.535 346.123 652.494 344.403 651.057 343.05C649.863 341.929 648.262 340.522 648.892 339.011C649.144 338.593 649.484 338.235 649.888 337.963C650.293 337.69 650.752 337.51 651.234 337.434C655.91 336.076 660.851 335.72 665.449 334.118C670.047 332.516 674.506 329.238 675.595 324.492C675.929 323.037 676.081 321.276 677.387 320.554C678.043 320.278 678.747 320.134 679.458 320.131C681.951 319.777 684.221 318.502 685.821 316.557C687.421 314.613 688.235 312.14 688.102 309.626C690.306 308.086 693.393 309.218 695.525 310.856C697.657 312.494 699.539 314.658 702.133 315.364C706.967 316.679 711.639 312.399 716.649 312.379C718.756 312.371 720.937 313.116 722.919 312.402C724.928 311.678 726.128 309.677 727.67 308.2C729.212 306.722 731.918 305.821 733.342 307.413L732.13 298.431C734.572 299.047 737.118 299.135 739.596 298.687C742.075 298.239 744.429 297.265 746.5 295.832L730.828 290.537C730.283 290.401 729.779 290.132 729.363 289.754C728.223 288.527 729.355 286.615 730.282 285.22C732.498 281.884 732.87 276.388 729.225 274.727C726.737 273.593 723.882 274.954 721.494 276.285L710.055 282.663C709.692 284.838 712.351 286.07 713.998 287.534C714.995 288.42 715.701 289.587 716.022 290.882C716.344 292.176 716.266 293.538 715.8 294.787C715.333 296.037 714.5 297.116 713.409 297.883C712.318 298.65 711.021 299.07 709.687 299.086C710.44 300.065 710.964 301.202 711.218 302.41C711.473 303.619 711.452 304.87 711.158 306.07L703.462 306.624C702.598 306.797 701.701 306.622 700.966 306.136C700.143 305.405 700.254 304.124 700.063 303.04C699.603 300.423 697.041 298.589 694.425 298.119C691.81 297.648 689.135 298.251 686.545 298.846C685.446 299.242 684.238 299.214 683.158 298.768C682.539 298.366 682.068 297.772 681.818 297.077C680.683 294.324 681.744 291.088 683.567 288.734C685.391 286.38 687.887 284.659 690.129 282.7C695.49 277.996 699.428 271.887 701.5 265.062C705.737 263.287 710.123 260.875 714.36 259.1C720.892 255.793 728.217 254.373 735.511 255.002L749.859 255.276C754.107 255.357 758.47 255.461 762.398 257.08C766.326 258.7 769.777 262.203 770.049 266.443C770.13 266.923 770.089 267.416 769.928 267.875C769.767 268.335 769.492 268.746 769.129 269.07C768.574 269.373 767.946 269.515 767.315 269.479C763.353 269.618 761.664 270.605 757.702 270.745Z" fill="#F8F8FB"/>
<path d="M643.339 315.712C643.899 315.181 644.303 314.507 644.505 313.762C644.707 313.017 644.699 312.23 644.484 311.489C643.119 310.963 641.636 310.828 640.199 311.099C638.762 311.37 637.43 312.037 636.352 313.025C635.502 313.885 634.769 314.853 634.173 315.905C632.288 318.981 630.62 322.655 631.713 326.094C631.802 326.469 631.965 326.822 632.192 327.133C632.42 327.444 632.707 327.707 633.037 327.905C633.527 328.102 634.055 328.185 634.581 328.147C636.658 328.145 638.733 328.017 640.795 327.765C642.061 327.61 643.531 327.252 644.021 326.075C644.664 324.526 643.107 322.774 643.561 321.16C643.86 320.438 644.312 319.79 644.887 319.261C645.172 318.995 645.391 318.666 645.527 318.3C645.663 317.934 645.711 317.542 645.669 317.154C645.486 316.396 644.326 315.967 643.909 316.625" fill="#F8F8FB"/>
<path d="M654.109 301.749C652.264 301.325 650.362 301.206 648.478 301.395C648.062 301.383 647.649 301.476 647.278 301.668C646.92 301.932 646.659 302.309 646.539 302.738C646.141 304.015 646.239 305.395 646.813 306.603C647.387 307.811 648.395 308.759 649.636 309.257C650.312 309.413 650.96 309.673 651.556 310.029C653.149 311.264 652.134 313.79 652.435 315.783C652.774 318.021 654.94 319.899 654.543 322.128C654.23 323.883 652.355 325.273 652.657 327.031C652.973 328.871 655.309 329.424 657.17 329.572C658.249 329.761 659.36 329.633 660.368 329.205C661.379 328.514 662.098 327.473 662.386 326.283C663.148 324.015 663.468 321.621 663.329 319.231C663.321 318.145 663.048 317.076 662.534 316.119C661.974 315.36 661.352 314.649 660.676 313.991C657.109 309.842 660.865 303.653 654.109 301.749Z" fill="#F8F8FB"/>
<path opacity="0.8" d="M1123.17 626.784C1123.17 626.784 849.969 469.962 732.352 499.675C732.352 499.675 483.087 526.5 454.199 585.515C454.199 585.515 374.962 337.9 346.074 329.647" stroke="#6C63FF" stroke-width="2" stroke-miterlimit="10"/>
<path opacity="0.8" d="M454.199 585.515C500.007 463.359 912.698 327.996 912.698 327.996C854.096 342.853 732.352 499.675 732.352 499.675C732.352 499.675 474.833 312.314 346.074 329.647C346.074 329.647 913.111 348.218 1123.17 626.784" stroke="#6C63FF" stroke-width="2" stroke-miterlimit="10"/>
<path d="M346.074 341.615C352.683 341.615 358.042 336.256 358.042 329.647C358.042 323.037 352.683 317.679 346.074 317.679C339.464 317.679 334.105 323.037 334.105 329.647C334.105 336.256 339.464 341.615 346.074 341.615Z" fill="#6C63FF"/>
<path d="M454.199 597.483C460.808 597.483 466.167 592.125 466.167 585.515C466.167 578.905 460.808 573.547 454.199 573.547C447.589 573.547 442.231 578.905 442.231 585.515C442.231 592.125 447.589 597.483 454.199 597.483Z" fill="#6C63FF"/>
<path d="M912.698 339.964C919.308 339.964 924.666 334.606 924.666 327.996C924.666 321.386 919.308 316.028 912.698 316.028C906.088 316.028 900.73 321.386 900.73 327.996C900.73 334.606 906.088 339.964 912.698 339.964Z" fill="#6C63FF"/>
<path d="M1123.17 638.752C1129.78 638.752 1135.14 633.394 1135.14 626.784C1135.14 620.174 1129.78 614.816 1123.17 614.816C1116.56 614.816 1111.2 620.174 1111.2 626.784C1111.2 633.394 1116.56 638.752 1123.17 638.752Z" fill="#6C63FF"/>
<path d="M732.352 511.643C738.962 511.643 744.32 506.285 744.32 499.675C744.32 493.066 738.962 487.707 732.352 487.707C725.742 487.707 720.384 493.066 720.384 499.675C720.384 506.285 725.742 511.643 732.352 511.643Z" fill="#6C63FF"/>
</g>
<defs>
<clipPath id="clip0">
<rect width="1176.61" height="873.979" fill="white" transform="translate(132 19)"/>
</clipPath>
</defs>
</svg>
