<svg width="375" height="300" viewBox="0 0 375 300" fill="none" xmlns="http://www.w3.org/2000/svg">
<g filter="url(#filter0_d)">
<circle cx="110" cy="169" r="47" fill="#EE8484"/>
</g>
<g filter="url(#filter1_d)">
<circle cx="150" cy="148" r="47" fill="#EE8484"/>
</g>
<g filter="url(#filter2_d)">
<circle cx="161" cy="190" r="47" fill="#EE8484"/>
</g>
<g filter="url(#filter3_d)">
<circle cx="222" cy="185" r="47" fill="#EE8484"/>
</g>
<g filter="url(#filter4_d)">
<circle cx="212" cy="143" r="47" fill="#EE8484"/>
</g>
<g filter="url(#filter5_d)">
<circle cx="279" cy="169" r="47" fill="#EE8484"/>
</g>
<g filter="url(#filter6_d)">
<circle cx="96" cy="138" r="47" fill="#EE8484"/>
</g>
<g filter="url(#filter7_d)">
<circle cx="259" cy="127" r="47" fill="#EE8484"/>
</g>
<g filter="url(#filter8_d)">
<circle cx="181" cy="110" r="47" fill="#EE8484"/>
</g>
<path d="M138.988 153.363H142.662L143.084 171.398H138.566L138.988 153.363ZM143.189 147.932C143.189 148.588 142.979 149.139 142.557 149.584C142.135 150.018 141.543 150.234 140.781 150.234C140.008 150.234 139.41 150.018 138.988 149.584C138.566 149.139 138.355 148.588 138.355 147.932C138.355 147.287 138.566 146.748 138.988 146.314C139.41 145.869 140.008 145.646 140.781 145.646C141.543 145.646 142.135 145.869 142.557 146.314C142.979 146.748 143.189 147.287 143.189 147.932ZM168.555 152.871C168.555 155.379 168.121 157.582 167.254 159.48C166.387 161.367 165.145 162.82 163.527 163.84C161.922 164.848 160.07 165.352 157.973 165.352C155.898 165.352 154.047 164.848 152.418 163.84C150.801 162.82 149.547 161.373 148.656 159.498C147.777 157.623 147.332 155.461 147.32 153.012V151.57C147.32 149.074 147.76 146.871 148.639 144.961C149.529 143.051 150.777 141.592 152.383 140.584C154 139.564 155.852 139.055 157.938 139.055C160.023 139.055 161.869 139.559 163.475 140.566C165.092 141.562 166.34 143.004 167.219 144.891C168.098 146.766 168.543 148.951 168.555 151.447V152.871ZM164.107 151.535C164.107 148.699 163.568 146.525 162.49 145.014C161.424 143.502 159.906 142.746 157.938 142.746C156.016 142.746 154.51 143.502 153.42 145.014C152.342 146.514 151.791 148.641 151.768 151.395V152.871C151.768 155.684 152.312 157.857 153.402 159.393C154.504 160.928 156.027 161.695 157.973 161.695C159.941 161.695 161.453 160.945 162.508 159.445C163.574 157.945 164.107 155.754 164.107 152.871V151.535ZM184.094 163.137C182.84 164.613 181.059 165.352 178.75 165.352C176.688 165.352 175.123 164.748 174.057 163.541C173.002 162.334 172.475 160.588 172.475 158.303V145.98H176.746V158.25C176.746 160.664 177.748 161.871 179.752 161.871C181.826 161.871 183.227 161.127 183.953 159.639V145.98H188.225V165H184.199L184.094 163.137ZM200.389 161.941C201.455 161.941 202.34 161.631 203.043 161.01C203.746 160.389 204.121 159.621 204.168 158.707H208.193C208.146 159.891 207.777 160.998 207.086 162.029C206.395 163.049 205.457 163.857 204.273 164.455C203.09 165.053 201.812 165.352 200.441 165.352C197.781 165.352 195.672 164.49 194.113 162.768C192.555 161.045 191.775 158.666 191.775 155.631V155.191C191.775 152.297 192.549 149.982 194.096 148.248C195.643 146.502 197.752 145.629 200.424 145.629C202.686 145.629 204.525 146.291 205.943 147.615C207.373 148.928 208.123 150.656 208.193 152.801H204.168C204.121 151.711 203.746 150.814 203.043 150.111C202.352 149.408 201.467 149.057 200.389 149.057C199.006 149.057 197.939 149.561 197.189 150.568C196.439 151.564 196.059 153.082 196.047 155.121V155.807C196.047 157.869 196.416 159.41 197.154 160.43C197.904 161.438 198.982 161.941 200.389 161.941ZM215.629 148.055C217.023 146.438 218.787 145.629 220.92 145.629C224.975 145.629 227.031 147.943 227.09 152.572V165H222.818V152.73C222.818 151.418 222.531 150.492 221.957 149.953C221.395 149.402 220.562 149.127 219.461 149.127C217.75 149.127 216.473 149.889 215.629 151.412V165H211.357V138H215.629V148.055ZM235.949 157.459H232.275L231.871 139.406H236.371L235.949 157.459ZM231.748 162.979C231.748 162.311 231.965 161.76 232.398 161.326C232.832 160.881 233.424 160.658 234.174 160.658C234.924 160.658 235.516 160.881 235.949 161.326C236.383 161.76 236.6 162.311 236.6 162.979C236.6 163.623 236.389 164.162 235.967 164.596C235.545 165.029 234.947 165.246 234.174 165.246C233.4 165.246 232.803 165.029 232.381 164.596C231.959 164.162 231.748 163.623 231.748 162.979Z" fill="white"/>
<defs>
<filter id="filter0_d" x="38" y="97" width="152" height="152" filterUnits="userSpaceOnUse" color-interpolation-filters="sRGB">
<feFlood flood-opacity="0" result="BackgroundImageFix"/>
<feColorMatrix in="SourceAlpha" type="matrix" values="0 0 0 0 0 0 0 0 0 0 0 0 0 0 0 0 0 0 127 0" result="hardAlpha"/>
<feOffset dx="4" dy="4"/>
<feGaussianBlur stdDeviation="14.5"/>
<feComposite in2="hardAlpha" operator="out"/>
<feColorMatrix type="matrix" values="0 0 0 0 0.909804 0 0 0 0 0.505882 0 0 0 0 0.505882 0 0 0 1 0"/>
<feBlend mode="normal" in2="BackgroundImageFix" result="effect1_dropShadow"/>
<feBlend mode="normal" in="SourceGraphic" in2="effect1_dropShadow" result="shape"/>
</filter>
<filter id="filter1_d" x="78" y="76" width="152" height="152" filterUnits="userSpaceOnUse" color-interpolation-filters="sRGB">
<feFlood flood-opacity="0" result="BackgroundImageFix"/>
<feColorMatrix in="SourceAlpha" type="matrix" values="0 0 0 0 0 0 0 0 0 0 0 0 0 0 0 0 0 0 127 0" result="hardAlpha"/>
<feOffset dx="4" dy="4"/>
<feGaussianBlur stdDeviation="14.5"/>
<feComposite in2="hardAlpha" operator="out"/>
<feColorMatrix type="matrix" values="0 0 0 0 0.909804 0 0 0 0 0.505882 0 0 0 0 0.505882 0 0 0 1 0"/>
<feBlend mode="normal" in2="BackgroundImageFix" result="effect1_dropShadow"/>
<feBlend mode="normal" in="SourceGraphic" in2="effect1_dropShadow" result="shape"/>
</filter>
<filter id="filter2_d" x="89" y="118" width="152" height="152" filterUnits="userSpaceOnUse" color-interpolation-filters="sRGB">
<feFlood flood-opacity="0" result="BackgroundImageFix"/>
<feColorMatrix in="SourceAlpha" type="matrix" values="0 0 0 0 0 0 0 0 0 0 0 0 0 0 0 0 0 0 127 0" result="hardAlpha"/>
<feOffset dx="4" dy="4"/>
<feGaussianBlur stdDeviation="14.5"/>
<feComposite in2="hardAlpha" operator="out"/>
<feColorMatrix type="matrix" values="0 0 0 0 0.909804 0 0 0 0 0.505882 0 0 0 0 0.505882 0 0 0 1 0"/>
<feBlend mode="normal" in2="BackgroundImageFix" result="effect1_dropShadow"/>
<feBlend mode="normal" in="SourceGraphic" in2="effect1_dropShadow" result="shape"/>
</filter>
<filter id="filter3_d" x="150" y="113" width="152" height="152" filterUnits="userSpaceOnUse" color-interpolation-filters="sRGB">
<feFlood flood-opacity="0" result="BackgroundImageFix"/>
<feColorMatrix in="SourceAlpha" type="matrix" values="0 0 0 0 0 0 0 0 0 0 0 0 0 0 0 0 0 0 127 0" result="hardAlpha"/>
<feOffset dx="4" dy="4"/>
<feGaussianBlur stdDeviation="14.5"/>
<feComposite in2="hardAlpha" operator="out"/>
<feColorMatrix type="matrix" values="0 0 0 0 0.909804 0 0 0 0 0.505882 0 0 0 0 0.505882 0 0 0 1 0"/>
<feBlend mode="normal" in2="BackgroundImageFix" result="effect1_dropShadow"/>
<feBlend mode="normal" in="SourceGraphic" in2="effect1_dropShadow" result="shape"/>
</filter>
<filter id="filter4_d" x="140" y="71" width="152" height="152" filterUnits="userSpaceOnUse" color-interpolation-filters="sRGB">
<feFlood flood-opacity="0" result="BackgroundImageFix"/>
<feColorMatrix in="SourceAlpha" type="matrix" values="0 0 0 0 0 0 0 0 0 0 0 0 0 0 0 0 0 0 127 0" result="hardAlpha"/>
<feOffset dx="4" dy="4"/>
<feGaussianBlur stdDeviation="14.5"/>
<feComposite in2="hardAlpha" operator="out"/>
<feColorMatrix type="matrix" values="0 0 0 0 0.909804 0 0 0 0 0.505882 0 0 0 0 0.505882 0 0 0 1 0"/>
<feBlend mode="normal" in2="BackgroundImageFix" result="effect1_dropShadow"/>
<feBlend mode="normal" in="SourceGraphic" in2="effect1_dropShadow" result="shape"/>
</filter>
<filter id="filter5_d" x="207" y="97" width="152" height="152" filterUnits="userSpaceOnUse" color-interpolation-filters="sRGB">
<feFlood flood-opacity="0" result="BackgroundImageFix"/>
<feColorMatrix in="SourceAlpha" type="matrix" values="0 0 0 0 0 0 0 0 0 0 0 0 0 0 0 0 0 0 127 0" result="hardAlpha"/>
<feOffset dx="4" dy="4"/>
<feGaussianBlur stdDeviation="14.5"/>
<feComposite in2="hardAlpha" operator="out"/>
<feColorMatrix type="matrix" values="0 0 0 0 0.909804 0 0 0 0 0.505882 0 0 0 0 0.505882 0 0 0 1 0"/>
<feBlend mode="normal" in2="BackgroundImageFix" result="effect1_dropShadow"/>
<feBlend mode="normal" in="SourceGraphic" in2="effect1_dropShadow" result="shape"/>
</filter>
<filter id="filter6_d" x="24" y="66" width="152" height="152" filterUnits="userSpaceOnUse" color-interpolation-filters="sRGB">
<feFlood flood-opacity="0" result="BackgroundImageFix"/>
<feColorMatrix in="SourceAlpha" type="matrix" values="0 0 0 0 0 0 0 0 0 0 0 0 0 0 0 0 0 0 127 0" result="hardAlpha"/>
<feOffset dx="4" dy="4"/>
<feGaussianBlur stdDeviation="14.5"/>
<feComposite in2="hardAlpha" operator="out"/>
<feColorMatrix type="matrix" values="0 0 0 0 0.909804 0 0 0 0 0.505882 0 0 0 0 0.505882 0 0 0 1 0"/>
<feBlend mode="normal" in2="BackgroundImageFix" result="effect1_dropShadow"/>
<feBlend mode="normal" in="SourceGraphic" in2="effect1_dropShadow" result="shape"/>
</filter>
<filter id="filter7_d" x="187" y="55" width="152" height="152" filterUnits="userSpaceOnUse" color-interpolation-filters="sRGB">
<feFlood flood-opacity="0" result="BackgroundImageFix"/>
<feColorMatrix in="SourceAlpha" type="matrix" values="0 0 0 0 0 0 0 0 0 0 0 0 0 0 0 0 0 0 127 0" result="hardAlpha"/>
<feOffset dx="4" dy="4"/>
<feGaussianBlur stdDeviation="14.5"/>
<feComposite in2="hardAlpha" operator="out"/>
<feColorMatrix type="matrix" values="0 0 0 0 0.909804 0 0 0 0 0.505882 0 0 0 0 0.505882 0 0 0 1 0"/>
<feBlend mode="normal" in2="BackgroundImageFix" result="effect1_dropShadow"/>
<feBlend mode="normal" in="SourceGraphic" in2="effect1_dropShadow" result="shape"/>
</filter>
<filter id="filter8_d" x="109" y="38" width="152" height="152" filterUnits="userSpaceOnUse" color-interpolation-filters="sRGB">
<feFlood flood-opacity="0" result="BackgroundImageFix"/>
<feColorMatrix in="SourceAlpha" type="matrix" values="0 0 0 0 0 0 0 0 0 0 0 0 0 0 0 0 0 0 127 0" result="hardAlpha"/>
<feOffset dx="4" dy="4"/>
<feGaussianBlur stdDeviation="14.5"/>
<feComposite in2="hardAlpha" operator="out"/>
<feColorMatrix type="matrix" values="0 0 0 0 0.909804 0 0 0 0 0.505882 0 0 0 0 0.505882 0 0 0 1 0"/>
<feBlend mode="normal" in2="BackgroundImageFix" result="effect1_dropShadow"/>
<feBlend mode="normal" in="SourceGraphic" in2="effect1_dropShadow" result="shape"/>
</filter>
</defs>
</svg>
