<svg width="1330" height="400" viewBox="0 0 1330 400" fill="none" xmlns="http://www.w3.org/2000/svg">
<rect width="1330" height="400" fill="white"/>
<line x1="0.950453" y1="244.513" x2="1295" y2="245.005" stroke="black" stroke-width="2"/>
<line x1="3.49988" y1="166.019" x2="2.4873" y2="246.013" stroke="black" stroke-width="3"/>
<line x1="28.5062" y1="206.013" x2="27.9999" y2="246.009" stroke="black" stroke-width="2"/>
<line x1="80.5062" y1="206.013" x2="79.9999" y2="246.009" stroke="black" stroke-width="2"/>
<line x1="132.506" y1="192.013" x2="131.823" y2="246.008" stroke="black" stroke-width="2"/>
<line x1="158.506" y1="206.013" x2="158" y2="246.009" stroke="black" stroke-width="2"/>
<line x1="184.506" y1="206.013" x2="184" y2="246.009" stroke="black" stroke-width="2"/>
<line x1="210.506" y1="206.013" x2="210" y2="246.009" stroke="black" stroke-width="2"/>
<line x1="236.506" y1="206.013" x2="236" y2="246.009" stroke="black" stroke-width="2"/>
<line x1="263.006" y1="166.019" x2="261.994" y2="246.013" stroke="black" stroke-width="3"/>
<line x1="288.506" y1="206.013" x2="288" y2="246.009" stroke="black" stroke-width="2"/>
<line x1="314.506" y1="206.013" x2="314" y2="246.009" stroke="black" stroke-width="2"/>
<line x1="340.506" y1="206.013" x2="340" y2="246.009" stroke="black" stroke-width="2"/>
<line x1="366.506" y1="206.013" x2="366" y2="246.009" stroke="black" stroke-width="2"/>
<line x1="392.506" y1="192.013" x2="391.823" y2="246.008" stroke="black" stroke-width="2"/>
<line x1="418.506" y1="206.013" x2="418" y2="246.009" stroke="black" stroke-width="2"/>
<line x1="444.506" y1="206.013" x2="444" y2="246.009" stroke="black" stroke-width="2"/>
<line x1="470.506" y1="206.013" x2="470" y2="246.009" stroke="black" stroke-width="2"/>
<line x1="496.506" y1="206.013" x2="496" y2="246.009" stroke="black" stroke-width="2"/>
<line x1="523.006" y1="166.019" x2="521.994" y2="246.013" stroke="black" stroke-width="3"/>
<line x1="548.506" y1="206.013" x2="548" y2="246.009" stroke="black" stroke-width="2"/>
<line x1="574.506" y1="206.013" x2="574" y2="246.009" stroke="black" stroke-width="2"/>
<line x1="600.506" y1="206.013" x2="600" y2="246.009" stroke="black" stroke-width="2"/>
<line x1="626.506" y1="206.013" x2="626" y2="246.009" stroke="black" stroke-width="2"/>
<line x1="653.506" y1="192.013" x2="652.823" y2="246.008" stroke="black" stroke-width="2"/>
<line x1="678.506" y1="206.013" x2="678" y2="246.009" stroke="black" stroke-width="2"/>
<line x1="704.506" y1="206.013" x2="704" y2="246.009" stroke="black" stroke-width="2"/>
<line x1="730.506" y1="206.013" x2="730" y2="246.009" stroke="black" stroke-width="2"/>
<line x1="756.506" y1="206.013" x2="756" y2="246.009" stroke="black" stroke-width="2"/>
<line x1="783.006" y1="166.019" x2="781.994" y2="246.013" stroke="black" stroke-width="3"/>
<line x1="808.506" y1="206.013" x2="808" y2="246.009" stroke="black" stroke-width="2"/>
<line x1="834.506" y1="206.013" x2="834" y2="246.009" stroke="black" stroke-width="2"/>
<line x1="860.506" y1="206.013" x2="860" y2="246.009" stroke="black" stroke-width="2"/>
<line x1="886.506" y1="206.013" x2="886" y2="246.009" stroke="black" stroke-width="2"/>
<line x1="912.506" y1="192.013" x2="911.823" y2="246.008" stroke="black" stroke-width="2"/>
<line x1="938.506" y1="206.013" x2="938" y2="246.009" stroke="black" stroke-width="2"/>
<line x1="964.506" y1="206.013" x2="964" y2="246.009" stroke="black" stroke-width="2"/>
<line x1="990.506" y1="206.013" x2="990" y2="246.009" stroke="black" stroke-width="2"/>
<line x1="1016.51" y1="206.013" x2="1016" y2="246.009" stroke="black" stroke-width="2"/>
<line x1="1043.01" y1="166.019" x2="1041.99" y2="246.013" stroke="black" stroke-width="3"/>
<line x1="1068.51" y1="206.013" x2="1068" y2="246.009" stroke="black" stroke-width="2"/>
<line x1="1094.51" y1="206.013" x2="1094" y2="246.009" stroke="black" stroke-width="2"/>
<line x1="1120.51" y1="206.013" x2="1120" y2="246.009" stroke="black" stroke-width="2"/>
<line x1="1146.51" y1="206.013" x2="1146" y2="246.009" stroke="black" stroke-width="2"/>
<line x1="1171.51" y1="192.013" x2="1170.82" y2="246.008" stroke="black" stroke-width="2"/>
<line x1="1196.51" y1="206.013" x2="1196" y2="246.009" stroke="black" stroke-width="2"/>
<line x1="1221.51" y1="206.013" x2="1221" y2="246.009" stroke="black" stroke-width="2"/>
<line x1="1246.51" y1="206.013" x2="1246" y2="246.009" stroke="black" stroke-width="2"/>
<line x1="1271.51" y1="206.013" x2="1271" y2="246.009" stroke="black" stroke-width="2"/>
<line x1="1297.01" y1="166.019" x2="1295.99" y2="246.013" stroke="black" stroke-width="3"/>
<line x1="106.506" y1="206.013" x2="106" y2="246.009" stroke="black" stroke-width="2"/>
<line x1="54.5062" y1="206.013" x2="53.9999" y2="246.009" stroke="black" stroke-width="2"/>
<path d="M12.1172 139.723C12.1172 142.262 11.6836 144.148 10.8164 145.383C9.94922 146.617 8.59375 147.234 6.75 147.234C4.92969 147.234 3.58203 146.633 2.70703 145.43C1.83203 144.219 1.37891 142.414 1.34766 140.016V137.121C1.34766 134.613 1.78125 132.75 2.64844 131.531C3.51562 130.312 4.875 129.703 6.72656 129.703C8.5625 129.703 9.91406 130.293 10.7812 131.473C11.6484 132.645 12.0938 134.457 12.1172 136.91V139.723ZM9.94922 136.758C9.94922 134.922 9.69141 133.586 9.17578 132.75C8.66016 131.906 7.84375 131.484 6.72656 131.484C5.61719 131.484 4.80859 131.902 4.30078 132.738C3.79297 133.574 3.53125 134.859 3.51562 136.594V140.062C3.51562 141.906 3.78125 143.27 4.3125 144.152C4.85156 145.027 5.66406 145.465 6.75 145.465C7.82031 145.465 8.61328 145.051 9.12891 144.223C9.65234 143.395 9.92578 142.09 9.94922 140.309V136.758Z" fill="black"/>
<path d="M234.543 147H232.363V132.551L227.992 134.156V132.188L234.203 129.855H234.543V147ZM251.594 139.723C251.594 142.262 251.16 144.148 250.293 145.383C249.426 146.617 248.07 147.234 246.227 147.234C244.406 147.234 243.059 146.633 242.184 145.43C241.309 144.219 240.855 142.414 240.824 140.016V137.121C240.824 134.613 241.258 132.75 242.125 131.531C242.992 130.312 244.352 129.703 246.203 129.703C248.039 129.703 249.391 130.293 250.258 131.473C251.125 132.645 251.57 134.457 251.594 136.91V139.723ZM249.426 136.758C249.426 134.922 249.168 133.586 248.652 132.75C248.137 131.906 247.32 131.484 246.203 131.484C245.094 131.484 244.285 131.902 243.777 132.738C243.27 133.574 243.008 134.859 242.992 136.594V140.062C242.992 141.906 243.258 143.27 243.789 144.152C244.328 145.027 245.141 145.465 246.227 145.465C247.297 145.465 248.09 145.051 248.605 144.223C249.129 143.395 249.402 142.09 249.426 140.309V136.758ZM254.523 150.398L253.293 149.555C254.027 148.531 254.41 147.477 254.441 146.391V144.434H256.562V146.133C256.562 146.922 256.367 147.711 255.977 148.5C255.594 149.289 255.109 149.922 254.523 150.398ZM269.781 139.723C269.781 142.262 269.348 144.148 268.48 145.383C267.613 146.617 266.258 147.234 264.414 147.234C262.594 147.234 261.246 146.633 260.371 145.43C259.496 144.219 259.043 142.414 259.012 140.016V137.121C259.012 134.613 259.445 132.75 260.312 131.531C261.18 130.312 262.539 129.703 264.391 129.703C266.227 129.703 267.578 130.293 268.445 131.473C269.312 132.645 269.758 134.457 269.781 136.91V139.723ZM267.613 136.758C267.613 134.922 267.355 133.586 266.84 132.75C266.324 131.906 265.508 131.484 264.391 131.484C263.281 131.484 262.473 131.902 261.965 132.738C261.457 133.574 261.195 134.859 261.18 136.594V140.062C261.18 141.906 261.445 143.27 261.977 144.152C262.516 145.027 263.328 145.465 264.414 145.465C265.484 145.465 266.277 145.051 266.793 144.223C267.316 143.395 267.59 142.09 267.613 140.309V136.758ZM283.258 139.723C283.258 142.262 282.824 144.148 281.957 145.383C281.09 146.617 279.734 147.234 277.891 147.234C276.07 147.234 274.723 146.633 273.848 145.43C272.973 144.219 272.52 142.414 272.488 140.016V137.121C272.488 134.613 272.922 132.75 273.789 131.531C274.656 130.312 276.016 129.703 277.867 129.703C279.703 129.703 281.055 130.293 281.922 131.473C282.789 132.645 283.234 134.457 283.258 136.91V139.723ZM281.09 136.758C281.09 134.922 280.832 133.586 280.316 132.75C279.801 131.906 278.984 131.484 277.867 131.484C276.758 131.484 275.949 131.902 275.441 132.738C274.934 133.574 274.672 134.859 274.656 136.594V140.062C274.656 141.906 274.922 143.27 275.453 144.152C275.992 145.027 276.805 145.465 277.891 145.465C278.961 145.465 279.754 145.051 280.27 144.223C280.793 143.395 281.066 142.09 281.09 140.309V136.758ZM296.734 139.723C296.734 142.262 296.301 144.148 295.434 145.383C294.566 146.617 293.211 147.234 291.367 147.234C289.547 147.234 288.199 146.633 287.324 145.43C286.449 144.219 285.996 142.414 285.965 140.016V137.121C285.965 134.613 286.398 132.75 287.266 131.531C288.133 130.312 289.492 129.703 291.344 129.703C293.18 129.703 294.531 130.293 295.398 131.473C296.266 132.645 296.711 134.457 296.734 136.91V139.723ZM294.566 136.758C294.566 134.922 294.309 133.586 293.793 132.75C293.277 131.906 292.461 131.484 291.344 131.484C290.234 131.484 289.426 131.902 288.918 132.738C288.41 133.574 288.148 134.859 288.133 136.594V140.062C288.133 141.906 288.398 143.27 288.93 144.152C289.469 145.027 290.281 145.465 291.367 145.465C292.438 145.465 293.23 145.051 293.746 144.223C294.27 143.395 294.543 142.09 294.566 140.309V136.758Z" fill="black"/>
<path d="M497.598 153H486.418V151.441L492.324 144.879C493.199 143.887 493.801 143.082 494.129 142.465C494.465 141.84 494.633 141.195 494.633 140.531C494.633 139.641 494.363 138.91 493.824 138.34C493.285 137.77 492.566 137.484 491.668 137.484C490.59 137.484 489.75 137.793 489.148 138.41C488.555 139.02 488.258 139.871 488.258 140.965H486.09C486.09 139.395 486.594 138.125 487.602 137.156C488.617 136.188 489.973 135.703 491.668 135.703C493.254 135.703 494.508 136.121 495.43 136.957C496.352 137.785 496.812 138.891 496.812 140.273C496.812 141.953 495.742 143.953 493.602 146.273L489.031 151.23H497.598V153ZM510.594 145.723C510.594 148.262 510.16 150.148 509.293 151.383C508.426 152.617 507.07 153.234 505.227 153.234C503.406 153.234 502.059 152.633 501.184 151.43C500.309 150.219 499.855 148.414 499.824 146.016V143.121C499.824 140.613 500.258 138.75 501.125 137.531C501.992 136.312 503.352 135.703 505.203 135.703C507.039 135.703 508.391 136.293 509.258 137.473C510.125 138.645 510.57 140.457 510.594 142.91V145.723ZM508.426 142.758C508.426 140.922 508.168 139.586 507.652 138.75C507.137 137.906 506.32 137.484 505.203 137.484C504.094 137.484 503.285 137.902 502.777 138.738C502.27 139.574 502.008 140.859 501.992 142.594V146.062C501.992 147.906 502.258 149.27 502.789 150.152C503.328 151.027 504.141 151.465 505.227 151.465C506.297 151.465 507.09 151.051 507.605 150.223C508.129 149.395 508.402 148.09 508.426 146.309V142.758ZM513.523 156.398L512.293 155.555C513.027 154.531 513.41 153.477 513.441 152.391V150.434H515.562V152.133C515.562 152.922 515.367 153.711 514.977 154.5C514.594 155.289 514.109 155.922 513.523 156.398ZM528.781 145.723C528.781 148.262 528.348 150.148 527.48 151.383C526.613 152.617 525.258 153.234 523.414 153.234C521.594 153.234 520.246 152.633 519.371 151.43C518.496 150.219 518.043 148.414 518.012 146.016V143.121C518.012 140.613 518.445 138.75 519.312 137.531C520.18 136.312 521.539 135.703 523.391 135.703C525.227 135.703 526.578 136.293 527.445 137.473C528.312 138.645 528.758 140.457 528.781 142.91V145.723ZM526.613 142.758C526.613 140.922 526.355 139.586 525.84 138.75C525.324 137.906 524.508 137.484 523.391 137.484C522.281 137.484 521.473 137.902 520.965 138.738C520.457 139.574 520.195 140.859 520.18 142.594V146.062C520.18 147.906 520.445 149.27 520.977 150.152C521.516 151.027 522.328 151.465 523.414 151.465C524.484 151.465 525.277 151.051 525.793 150.223C526.316 149.395 526.59 148.09 526.613 146.309V142.758ZM542.258 145.723C542.258 148.262 541.824 150.148 540.957 151.383C540.09 152.617 538.734 153.234 536.891 153.234C535.07 153.234 533.723 152.633 532.848 151.43C531.973 150.219 531.52 148.414 531.488 146.016V143.121C531.488 140.613 531.922 138.75 532.789 137.531C533.656 136.312 535.016 135.703 536.867 135.703C538.703 135.703 540.055 136.293 540.922 137.473C541.789 138.645 542.234 140.457 542.258 142.91V145.723ZM540.09 142.758C540.09 140.922 539.832 139.586 539.316 138.75C538.801 137.906 537.984 137.484 536.867 137.484C535.758 137.484 534.949 137.902 534.441 138.738C533.934 139.574 533.672 140.859 533.656 142.594V146.062C533.656 147.906 533.922 149.27 534.453 150.152C534.992 151.027 535.805 151.465 536.891 151.465C537.961 151.465 538.754 151.051 539.27 150.223C539.793 149.395 540.066 148.09 540.09 146.309V142.758ZM555.734 145.723C555.734 148.262 555.301 150.148 554.434 151.383C553.566 152.617 552.211 153.234 550.367 153.234C548.547 153.234 547.199 152.633 546.324 151.43C545.449 150.219 544.996 148.414 544.965 146.016V143.121C544.965 140.613 545.398 138.75 546.266 137.531C547.133 136.312 548.492 135.703 550.344 135.703C552.18 135.703 553.531 136.293 554.398 137.473C555.266 138.645 555.711 140.457 555.734 142.91V145.723ZM553.566 142.758C553.566 140.922 553.309 139.586 552.793 138.75C552.277 137.906 551.461 137.484 550.344 137.484C549.234 137.484 548.426 137.902 547.918 138.738C547.41 139.574 547.148 140.859 547.133 142.594V146.062C547.133 147.906 547.398 149.27 547.93 150.152C548.469 151.027 549.281 151.465 550.367 151.465C551.438 151.465 552.23 151.051 552.746 150.223C553.27 149.395 553.543 148.09 553.566 146.309V142.758Z" fill="black"/>
<path d="M749.57 145.414H751.199C752.223 145.398 753.027 145.129 753.613 144.605C754.199 144.082 754.492 143.375 754.492 142.484C754.492 140.484 753.496 139.484 751.504 139.484C750.566 139.484 749.816 139.754 749.254 140.293C748.699 140.824 748.422 141.531 748.422 142.414H746.254C746.254 141.062 746.746 139.941 747.73 139.051C748.723 138.152 749.98 137.703 751.504 137.703C753.113 137.703 754.375 138.129 755.289 138.98C756.203 139.832 756.66 141.016 756.66 142.531C756.66 143.273 756.418 143.992 755.934 144.688C755.457 145.383 754.805 145.902 753.977 146.246C754.914 146.543 755.637 147.035 756.145 147.723C756.66 148.41 756.918 149.25 756.918 150.242C756.918 151.773 756.418 152.988 755.418 153.887C754.418 154.785 753.117 155.234 751.516 155.234C749.914 155.234 748.609 154.801 747.602 153.934C746.602 153.066 746.102 151.922 746.102 150.5H748.281C748.281 151.398 748.574 152.117 749.16 152.656C749.746 153.195 750.531 153.465 751.516 153.465C752.562 153.465 753.363 153.191 753.918 152.645C754.473 152.098 754.75 151.312 754.75 150.289C754.75 149.297 754.445 148.535 753.836 148.004C753.227 147.473 752.348 147.199 751.199 147.184H749.57V145.414ZM770.594 147.723C770.594 150.262 770.16 152.148 769.293 153.383C768.426 154.617 767.07 155.234 765.227 155.234C763.406 155.234 762.059 154.633 761.184 153.43C760.309 152.219 759.855 150.414 759.824 148.016V145.121C759.824 142.613 760.258 140.75 761.125 139.531C761.992 138.312 763.352 137.703 765.203 137.703C767.039 137.703 768.391 138.293 769.258 139.473C770.125 140.645 770.57 142.457 770.594 144.91V147.723ZM768.426 144.758C768.426 142.922 768.168 141.586 767.652 140.75C767.137 139.906 766.32 139.484 765.203 139.484C764.094 139.484 763.285 139.902 762.777 140.738C762.27 141.574 762.008 142.859 761.992 144.594V148.062C761.992 149.906 762.258 151.27 762.789 152.152C763.328 153.027 764.141 153.465 765.227 153.465C766.297 153.465 767.09 153.051 767.605 152.223C768.129 151.395 768.402 150.09 768.426 148.309V144.758ZM773.523 158.398L772.293 157.555C773.027 156.531 773.41 155.477 773.441 154.391V152.434H775.562V154.133C775.562 154.922 775.367 155.711 774.977 156.5C774.594 157.289 774.109 157.922 773.523 158.398ZM788.781 147.723C788.781 150.262 788.348 152.148 787.48 153.383C786.613 154.617 785.258 155.234 783.414 155.234C781.594 155.234 780.246 154.633 779.371 153.43C778.496 152.219 778.043 150.414 778.012 148.016V145.121C778.012 142.613 778.445 140.75 779.312 139.531C780.18 138.312 781.539 137.703 783.391 137.703C785.227 137.703 786.578 138.293 787.445 139.473C788.312 140.645 788.758 142.457 788.781 144.91V147.723ZM786.613 144.758C786.613 142.922 786.355 141.586 785.84 140.75C785.324 139.906 784.508 139.484 783.391 139.484C782.281 139.484 781.473 139.902 780.965 140.738C780.457 141.574 780.195 142.859 780.18 144.594V148.062C780.18 149.906 780.445 151.27 780.977 152.152C781.516 153.027 782.328 153.465 783.414 153.465C784.484 153.465 785.277 153.051 785.793 152.223C786.316 151.395 786.59 150.09 786.613 148.309V144.758ZM802.258 147.723C802.258 150.262 801.824 152.148 800.957 153.383C800.09 154.617 798.734 155.234 796.891 155.234C795.07 155.234 793.723 154.633 792.848 153.43C791.973 152.219 791.52 150.414 791.488 148.016V145.121C791.488 142.613 791.922 140.75 792.789 139.531C793.656 138.312 795.016 137.703 796.867 137.703C798.703 137.703 800.055 138.293 800.922 139.473C801.789 140.645 802.234 142.457 802.258 144.91V147.723ZM800.09 144.758C800.09 142.922 799.832 141.586 799.316 140.75C798.801 139.906 797.984 139.484 796.867 139.484C795.758 139.484 794.949 139.902 794.441 140.738C793.934 141.574 793.672 142.859 793.656 144.594V148.062C793.656 149.906 793.922 151.27 794.453 152.152C794.992 153.027 795.805 153.465 796.891 153.465C797.961 153.465 798.754 153.051 799.27 152.223C799.793 151.395 800.066 150.09 800.09 148.309V144.758ZM815.734 147.723C815.734 150.262 815.301 152.148 814.434 153.383C813.566 154.617 812.211 155.234 810.367 155.234C808.547 155.234 807.199 154.633 806.324 153.43C805.449 152.219 804.996 150.414 804.965 148.016V145.121C804.965 142.613 805.398 140.75 806.266 139.531C807.133 138.312 808.492 137.703 810.344 137.703C812.18 137.703 813.531 138.293 814.398 139.473C815.266 140.645 815.711 142.457 815.734 144.91V147.723ZM813.566 144.758C813.566 142.922 813.309 141.586 812.793 140.75C812.277 139.906 811.461 139.484 810.344 139.484C809.234 139.484 808.426 139.902 807.918 140.738C807.41 141.574 807.148 142.859 807.133 144.594V148.062C807.133 149.906 807.398 151.27 807.93 152.152C808.469 153.027 809.281 153.465 810.367 153.465C811.438 153.465 812.23 153.051 812.746 152.223C813.27 151.395 813.543 150.09 813.566 148.309V144.758Z" fill="black"/>
<path d="M1014.57 149.27H1016.94V151.039H1014.57V155H1012.39V151.039H1004.62V149.762L1012.26 137.938H1014.57V149.27ZM1007.08 149.27H1012.39V140.902L1012.13 141.371L1007.08 149.27ZM1029.59 147.723C1029.59 150.262 1029.16 152.148 1028.29 153.383C1027.43 154.617 1026.07 155.234 1024.23 155.234C1022.41 155.234 1021.06 154.633 1020.18 153.43C1019.31 152.219 1018.86 150.414 1018.82 148.016V145.121C1018.82 142.613 1019.26 140.75 1020.12 139.531C1020.99 138.312 1022.35 137.703 1024.2 137.703C1026.04 137.703 1027.39 138.293 1028.26 139.473C1029.12 140.645 1029.57 142.457 1029.59 144.91V147.723ZM1027.43 144.758C1027.43 142.922 1027.17 141.586 1026.65 140.75C1026.14 139.906 1025.32 139.484 1024.2 139.484C1023.09 139.484 1022.29 139.902 1021.78 140.738C1021.27 141.574 1021.01 142.859 1020.99 144.594V148.062C1020.99 149.906 1021.26 151.27 1021.79 152.152C1022.33 153.027 1023.14 153.465 1024.23 153.465C1025.3 153.465 1026.09 153.051 1026.61 152.223C1027.13 151.395 1027.4 150.09 1027.43 148.309V144.758ZM1032.52 158.398L1031.29 157.555C1032.03 156.531 1032.41 155.477 1032.44 154.391V152.434H1034.56V154.133C1034.56 154.922 1034.37 155.711 1033.98 156.5C1033.59 157.289 1033.11 157.922 1032.52 158.398ZM1047.78 147.723C1047.78 150.262 1047.35 152.148 1046.48 153.383C1045.61 154.617 1044.26 155.234 1042.41 155.234C1040.59 155.234 1039.25 154.633 1038.37 153.43C1037.5 152.219 1037.04 150.414 1037.01 148.016V145.121C1037.01 142.613 1037.45 140.75 1038.31 139.531C1039.18 138.312 1040.54 137.703 1042.39 137.703C1044.23 137.703 1045.58 138.293 1046.45 139.473C1047.31 140.645 1047.76 142.457 1047.78 144.91V147.723ZM1045.61 144.758C1045.61 142.922 1045.36 141.586 1044.84 140.75C1044.32 139.906 1043.51 139.484 1042.39 139.484C1041.28 139.484 1040.47 139.902 1039.96 140.738C1039.46 141.574 1039.2 142.859 1039.18 144.594V148.062C1039.18 149.906 1039.45 151.27 1039.98 152.152C1040.52 153.027 1041.33 153.465 1042.41 153.465C1043.48 153.465 1044.28 153.051 1044.79 152.223C1045.32 151.395 1045.59 150.09 1045.61 148.309V144.758ZM1061.26 147.723C1061.26 150.262 1060.82 152.148 1059.96 153.383C1059.09 154.617 1057.73 155.234 1055.89 155.234C1054.07 155.234 1052.72 154.633 1051.85 153.43C1050.97 152.219 1050.52 150.414 1050.49 148.016V145.121C1050.49 142.613 1050.92 140.75 1051.79 139.531C1052.66 138.312 1054.02 137.703 1055.87 137.703C1057.7 137.703 1059.05 138.293 1059.92 139.473C1060.79 140.645 1061.23 142.457 1061.26 144.91V147.723ZM1059.09 144.758C1059.09 142.922 1058.83 141.586 1058.32 140.75C1057.8 139.906 1056.98 139.484 1055.87 139.484C1054.76 139.484 1053.95 139.902 1053.44 140.738C1052.93 141.574 1052.67 142.859 1052.66 144.594V148.062C1052.66 149.906 1052.92 151.27 1053.45 152.152C1053.99 153.027 1054.8 153.465 1055.89 153.465C1056.96 153.465 1057.75 153.051 1058.27 152.223C1058.79 151.395 1059.07 150.09 1059.09 148.309V144.758ZM1074.73 147.723C1074.73 150.262 1074.3 152.148 1073.43 153.383C1072.57 154.617 1071.21 155.234 1069.37 155.234C1067.55 155.234 1066.2 154.633 1065.32 153.43C1064.45 152.219 1064 150.414 1063.96 148.016V145.121C1063.96 142.613 1064.4 140.75 1065.27 139.531C1066.13 138.312 1067.49 137.703 1069.34 137.703C1071.18 137.703 1072.53 138.293 1073.4 139.473C1074.27 140.645 1074.71 142.457 1074.73 144.91V147.723ZM1072.57 144.758C1072.57 142.922 1072.31 141.586 1071.79 140.75C1071.28 139.906 1070.46 139.484 1069.34 139.484C1068.23 139.484 1067.43 139.902 1066.92 140.738C1066.41 141.574 1066.15 142.859 1066.13 144.594V148.062C1066.13 149.906 1066.4 151.27 1066.93 152.152C1067.47 153.027 1068.28 153.465 1069.37 153.465C1070.44 153.465 1071.23 153.051 1071.75 152.223C1072.27 151.395 1072.54 150.09 1072.57 148.309V144.758Z" fill="black"/>
<path d="M1259.41 146.445L1260.28 137.938H1269.02V139.941H1262.12L1261.61 144.594C1262.44 144.102 1263.39 143.855 1264.45 143.855C1266.01 143.855 1267.24 144.371 1268.16 145.402C1269.07 146.426 1269.53 147.812 1269.53 149.562C1269.53 151.32 1269.05 152.707 1268.1 153.723C1267.15 154.73 1265.83 155.234 1264.12 155.234C1262.62 155.234 1261.39 154.816 1260.43 153.98C1259.48 153.145 1258.94 151.988 1258.8 150.512H1260.86C1260.99 151.488 1261.34 152.227 1261.9 152.727C1262.46 153.219 1263.2 153.465 1264.12 153.465C1265.13 153.465 1265.92 153.121 1266.49 152.434C1267.07 151.746 1267.36 150.797 1267.36 149.586C1267.36 148.445 1267.05 147.531 1266.42 146.844C1265.8 146.148 1264.98 145.801 1263.95 145.801C1263 145.801 1262.26 146.008 1261.72 146.422L1261.15 146.891L1259.41 146.445ZM1282.59 147.723C1282.59 150.262 1282.16 152.148 1281.29 153.383C1280.43 154.617 1279.07 155.234 1277.23 155.234C1275.41 155.234 1274.06 154.633 1273.18 153.43C1272.31 152.219 1271.86 150.414 1271.82 148.016V145.121C1271.82 142.613 1272.26 140.75 1273.12 139.531C1273.99 138.312 1275.35 137.703 1277.2 137.703C1279.04 137.703 1280.39 138.293 1281.26 139.473C1282.12 140.645 1282.57 142.457 1282.59 144.91V147.723ZM1280.43 144.758C1280.43 142.922 1280.17 141.586 1279.65 140.75C1279.14 139.906 1278.32 139.484 1277.2 139.484C1276.09 139.484 1275.29 139.902 1274.78 140.738C1274.27 141.574 1274.01 142.859 1273.99 144.594V148.062C1273.99 149.906 1274.26 151.27 1274.79 152.152C1275.33 153.027 1276.14 153.465 1277.23 153.465C1278.3 153.465 1279.09 153.051 1279.61 152.223C1280.13 151.395 1280.4 150.09 1280.43 148.309V144.758ZM1285.52 158.398L1284.29 157.555C1285.03 156.531 1285.41 155.477 1285.44 154.391V152.434H1287.56V154.133C1287.56 154.922 1287.37 155.711 1286.98 156.5C1286.59 157.289 1286.11 157.922 1285.52 158.398ZM1300.78 147.723C1300.78 150.262 1300.35 152.148 1299.48 153.383C1298.61 154.617 1297.26 155.234 1295.41 155.234C1293.59 155.234 1292.25 154.633 1291.37 153.43C1290.5 152.219 1290.04 150.414 1290.01 148.016V145.121C1290.01 142.613 1290.45 140.75 1291.31 139.531C1292.18 138.312 1293.54 137.703 1295.39 137.703C1297.23 137.703 1298.58 138.293 1299.45 139.473C1300.31 140.645 1300.76 142.457 1300.78 144.91V147.723ZM1298.61 144.758C1298.61 142.922 1298.36 141.586 1297.84 140.75C1297.32 139.906 1296.51 139.484 1295.39 139.484C1294.28 139.484 1293.47 139.902 1292.96 140.738C1292.46 141.574 1292.2 142.859 1292.18 144.594V148.062C1292.18 149.906 1292.45 151.27 1292.98 152.152C1293.52 153.027 1294.33 153.465 1295.41 153.465C1296.48 153.465 1297.28 153.051 1297.79 152.223C1298.32 151.395 1298.59 150.09 1298.61 148.309V144.758ZM1314.26 147.723C1314.26 150.262 1313.82 152.148 1312.96 153.383C1312.09 154.617 1310.73 155.234 1308.89 155.234C1307.07 155.234 1305.72 154.633 1304.85 153.43C1303.97 152.219 1303.52 150.414 1303.49 148.016V145.121C1303.49 142.613 1303.92 140.75 1304.79 139.531C1305.66 138.312 1307.02 137.703 1308.87 137.703C1310.7 137.703 1312.05 138.293 1312.92 139.473C1313.79 140.645 1314.23 142.457 1314.26 144.91V147.723ZM1312.09 144.758C1312.09 142.922 1311.83 141.586 1311.32 140.75C1310.8 139.906 1309.98 139.484 1308.87 139.484C1307.76 139.484 1306.95 139.902 1306.44 140.738C1305.93 141.574 1305.67 142.859 1305.66 144.594V148.062C1305.66 149.906 1305.92 151.27 1306.45 152.152C1306.99 153.027 1307.8 153.465 1308.89 153.465C1309.96 153.465 1310.75 153.051 1311.27 152.223C1311.79 151.395 1312.07 150.09 1312.09 148.309V144.758ZM1327.73 147.723C1327.73 150.262 1327.3 152.148 1326.43 153.383C1325.57 154.617 1324.21 155.234 1322.37 155.234C1320.55 155.234 1319.2 154.633 1318.32 153.43C1317.45 152.219 1317 150.414 1316.96 148.016V145.121C1316.96 142.613 1317.4 140.75 1318.27 139.531C1319.13 138.312 1320.49 137.703 1322.34 137.703C1324.18 137.703 1325.53 138.293 1326.4 139.473C1327.27 140.645 1327.71 142.457 1327.73 144.91V147.723ZM1325.57 144.758C1325.57 142.922 1325.31 141.586 1324.79 140.75C1324.28 139.906 1323.46 139.484 1322.34 139.484C1321.23 139.484 1320.43 139.902 1319.92 140.738C1319.41 141.574 1319.15 142.859 1319.13 144.594V148.062C1319.13 149.906 1319.4 151.27 1319.93 152.152C1320.47 153.027 1321.28 153.465 1322.37 153.465C1323.44 153.465 1324.23 153.051 1324.75 152.223C1325.27 151.395 1325.54 150.09 1325.57 148.309V144.758Z" fill="black"/>
<path d="M28.2071 255.293C27.8166 254.902 27.1834 254.902 26.7929 255.293L20.4289 261.657C20.0384 262.047 20.0384 262.681 20.4289 263.071C20.8195 263.462 21.4526 263.462 21.8431 263.071L27.5 257.414L33.1569 263.071C33.5474 263.462 34.1805 263.462 34.5711 263.071C34.9616 262.681 34.9616 262.047 34.5711 261.657L28.2071 255.293ZM28.5 311.009L28.5 256H26.5L26.5 311.009H28.5Z" fill="black"/>
<path d="M262.207 255.293C261.817 254.902 261.183 254.902 260.793 255.293L254.429 261.657C254.038 262.047 254.038 262.681 254.429 263.071C254.819 263.462 255.453 263.462 255.843 263.071L261.5 257.414L267.157 263.071C267.547 263.462 268.181 263.462 268.571 263.071C268.962 262.681 268.962 262.047 268.571 261.657L262.207 255.293ZM262.5 311.009V256H260.5V311.009H262.5Z" fill="black"/>
<path d="M366.207 255.293C365.817 254.902 365.183 254.902 364.793 255.293L358.429 261.657C358.038 262.047 358.038 262.681 358.429 263.071C358.819 263.462 359.453 263.462 359.843 263.071L365.5 257.414L371.157 263.071C371.547 263.462 372.181 263.462 372.571 263.071C372.962 262.681 372.962 262.047 372.571 261.657L366.207 255.293ZM366.5 311.009V256H364.5V311.009H366.5Z" fill="black"/>
<path d="M781.707 255.293C781.317 254.902 780.683 254.902 780.293 255.293L773.929 261.657C773.538 262.047 773.538 262.681 773.929 263.071C774.319 263.462 774.953 263.462 775.343 263.071L781 257.414L786.657 263.071C787.047 263.462 787.681 263.462 788.071 263.071C788.462 262.681 788.462 262.047 788.071 261.657L781.707 255.293ZM782 311.009V256H780V311.009H782Z" fill="black"/>
<path d="M1225.71 255.293C1225.32 254.902 1224.68 254.902 1224.29 255.293L1217.93 261.657C1217.54 262.047 1217.54 262.681 1217.93 263.071C1218.32 263.462 1218.95 263.462 1219.34 263.071L1225 257.414L1230.66 263.071C1231.05 263.462 1231.68 263.462 1232.07 263.071C1232.46 262.681 1232.46 262.047 1232.07 261.657L1225.71 255.293ZM1226 311.009V256H1224V311.009H1226Z" fill="black"/>
<path d="M32.1064 335.039H23.8447L22.1162 340.005H18.2637L26.3203 318.676H29.6455L37.7168 340.005H33.8496L32.1064 335.039ZM24.8848 332.05H31.0664L27.9756 323.203L24.8848 332.05Z" fill="black"/>
<path d="M254.168 340.005V318.676H261.478C263.89 318.676 265.726 319.16 266.985 320.127C268.245 321.093 268.875 322.534 268.875 324.448C268.875 325.424 268.611 326.303 268.084 327.085C267.557 327.866 266.785 328.471 265.77 328.901C266.922 329.214 267.811 329.804 268.436 330.674C269.07 331.533 269.388 332.568 269.388 333.779C269.388 335.781 268.743 337.319 267.454 338.393C266.175 339.467 264.339 340.005 261.946 340.005H254.168ZM257.874 330.381V337.046H261.99C263.152 337.046 264.061 336.758 264.715 336.181C265.369 335.605 265.696 334.804 265.696 333.779C265.696 331.562 264.563 330.429 262.298 330.381H257.874ZM257.874 327.656H261.507C262.659 327.656 263.558 327.397 264.202 326.88C264.856 326.352 265.184 325.61 265.184 324.653C265.184 323.598 264.881 322.837 264.275 322.368C263.68 321.899 262.747 321.665 261.478 321.665H257.874V327.656Z" fill="#7C71FD"/>
<path d="M374.442 333.061C374.228 335.337 373.388 337.114 371.923 338.393C370.458 339.663 368.51 340.298 366.078 340.298C364.379 340.298 362.88 339.897 361.581 339.096C360.292 338.286 359.296 337.138 358.593 335.654C357.89 334.17 357.523 332.446 357.494 330.483V328.491C357.494 326.479 357.851 324.707 358.563 323.174C359.276 321.64 360.297 320.459 361.625 319.629C362.963 318.799 364.506 318.383 366.254 318.383C368.607 318.383 370.502 319.023 371.938 320.302C373.373 321.582 374.208 323.388 374.442 325.722H370.751C370.575 324.189 370.126 323.086 369.403 322.412C368.69 321.728 367.641 321.386 366.254 321.386C364.643 321.386 363.402 321.977 362.533 323.159C361.674 324.331 361.234 326.054 361.215 328.33V330.219C361.215 332.524 361.625 334.282 362.445 335.493C363.275 336.704 364.486 337.309 366.078 337.309C367.533 337.309 368.627 336.982 369.359 336.328C370.092 335.674 370.556 334.585 370.751 333.061H374.442Z" fill="black"/>
<path d="M773.168 340.005V318.676H779.467C781.352 318.676 783.021 319.096 784.477 319.936C785.941 320.776 787.074 321.967 787.875 323.51C788.676 325.053 789.076 326.821 789.076 328.813V329.883C789.076 331.904 788.671 333.681 787.86 335.215C787.06 336.748 785.912 337.929 784.418 338.759C782.934 339.59 781.229 340.005 779.306 340.005H773.168ZM776.874 321.665V337.046H779.291C781.234 337.046 782.724 336.44 783.759 335.229C784.804 334.008 785.336 332.26 785.355 329.985V328.799C785.355 326.484 784.853 324.716 783.847 323.496C782.841 322.275 781.381 321.665 779.467 321.665H776.874Z" fill="black"/>
<path d="M1229.63 330.483H1220.87V337.046H1231.11V340.005H1217.17V318.676H1231.01V321.665H1220.87V327.553H1229.63V330.483Z" fill="black"/>
</svg>
