<svg width="1440" height="400" viewBox="0 0 1440 400" fill="none" xmlns="http://www.w3.org/2000/svg">
<line x1="55.9505" y1="271.513" x2="1350" y2="272.005" stroke="black" stroke-width="2"/>
<line x1="58.4999" y1="193.019" x2="57.4873" y2="273.013" stroke="black" stroke-width="3"/>
<line x1="83.5062" y1="233.013" x2="82.9999" y2="273.009" stroke="black" stroke-width="2"/>
<line x1="135.506" y1="233.013" x2="135" y2="273.009" stroke="black" stroke-width="2"/>
<line x1="187.506" y1="219.013" x2="186.823" y2="273.008" stroke="black" stroke-width="2"/>
<line x1="213.506" y1="233.013" x2="213" y2="273.009" stroke="black" stroke-width="2"/>
<line x1="239.506" y1="233.013" x2="239" y2="273.009" stroke="black" stroke-width="2"/>
<line x1="265.506" y1="233.013" x2="265" y2="273.009" stroke="black" stroke-width="2"/>
<line x1="291.506" y1="233.013" x2="291" y2="273.009" stroke="black" stroke-width="2"/>
<line x1="318.006" y1="193.019" x2="316.994" y2="273.013" stroke="black" stroke-width="3"/>
<line x1="343.506" y1="233.013" x2="343" y2="273.009" stroke="black" stroke-width="2"/>
<line x1="369.506" y1="233.013" x2="369" y2="273.009" stroke="black" stroke-width="2"/>
<line x1="395.506" y1="233.013" x2="395" y2="273.009" stroke="black" stroke-width="2"/>
<line x1="421.506" y1="233.013" x2="421" y2="273.009" stroke="black" stroke-width="2"/>
<line x1="447.506" y1="219.013" x2="446.823" y2="273.008" stroke="black" stroke-width="2"/>
<line x1="473.506" y1="233.013" x2="473" y2="273.009" stroke="black" stroke-width="2"/>
<line x1="499.506" y1="233.013" x2="499" y2="273.009" stroke="black" stroke-width="2"/>
<line x1="525.506" y1="233.013" x2="525" y2="273.009" stroke="black" stroke-width="2"/>
<line x1="551.506" y1="233.013" x2="551" y2="273.009" stroke="black" stroke-width="2"/>
<line x1="578.006" y1="193.019" x2="576.994" y2="273.013" stroke="black" stroke-width="3"/>
<line x1="603.506" y1="233.013" x2="603" y2="273.009" stroke="black" stroke-width="2"/>
<line x1="629.506" y1="233.013" x2="629" y2="273.009" stroke="black" stroke-width="2"/>
<line x1="655.506" y1="233.013" x2="655" y2="273.009" stroke="black" stroke-width="2"/>
<line x1="681.506" y1="233.013" x2="681" y2="273.009" stroke="black" stroke-width="2"/>
<line x1="708.506" y1="219.013" x2="707.823" y2="273.008" stroke="black" stroke-width="2"/>
<line x1="733.506" y1="233.013" x2="733" y2="273.009" stroke="black" stroke-width="2"/>
<line x1="759.506" y1="233.013" x2="759" y2="273.009" stroke="black" stroke-width="2"/>
<line x1="785.506" y1="233.013" x2="785" y2="273.009" stroke="black" stroke-width="2"/>
<line x1="811.506" y1="233.013" x2="811" y2="273.009" stroke="black" stroke-width="2"/>
<line x1="838.006" y1="193.019" x2="836.994" y2="273.013" stroke="black" stroke-width="3"/>
<line x1="863.506" y1="233.013" x2="863" y2="273.009" stroke="black" stroke-width="2"/>
<line x1="889.506" y1="233.013" x2="889" y2="273.009" stroke="black" stroke-width="2"/>
<line x1="915.506" y1="233.013" x2="915" y2="273.009" stroke="black" stroke-width="2"/>
<line x1="941.506" y1="233.013" x2="941" y2="273.009" stroke="black" stroke-width="2"/>
<line x1="967.506" y1="219.013" x2="966.823" y2="273.008" stroke="black" stroke-width="2"/>
<line x1="993.506" y1="233.013" x2="993" y2="273.009" stroke="black" stroke-width="2"/>
<line x1="1019.51" y1="233.013" x2="1019" y2="273.009" stroke="black" stroke-width="2"/>
<line x1="1045.51" y1="233.013" x2="1045" y2="273.009" stroke="black" stroke-width="2"/>
<line x1="1071.51" y1="233.013" x2="1071" y2="273.009" stroke="black" stroke-width="2"/>
<line x1="1098.01" y1="193.019" x2="1096.99" y2="273.013" stroke="black" stroke-width="3"/>
<line x1="1123.51" y1="233.013" x2="1123" y2="273.009" stroke="black" stroke-width="2"/>
<line x1="1149.51" y1="233.013" x2="1149" y2="273.009" stroke="black" stroke-width="2"/>
<line x1="1175.51" y1="233.013" x2="1175" y2="273.009" stroke="black" stroke-width="2"/>
<line x1="1201.51" y1="233.013" x2="1201" y2="273.009" stroke="black" stroke-width="2"/>
<line x1="1226.51" y1="219.013" x2="1225.82" y2="273.008" stroke="black" stroke-width="2"/>
<line x1="1251.51" y1="233.013" x2="1251" y2="273.009" stroke="black" stroke-width="2"/>
<line x1="1276.51" y1="233.013" x2="1276" y2="273.009" stroke="black" stroke-width="2"/>
<line x1="1301.51" y1="233.013" x2="1301" y2="273.009" stroke="black" stroke-width="2"/>
<line x1="1326.51" y1="233.013" x2="1326" y2="273.009" stroke="black" stroke-width="2"/>
<line x1="1352.01" y1="193.019" x2="1350.99" y2="273.013" stroke="black" stroke-width="3"/>
<line x1="161.506" y1="233.013" x2="161" y2="273.009" stroke="black" stroke-width="2"/>
<line x1="109.506" y1="233.013" x2="109" y2="273.009" stroke="black" stroke-width="2"/>
<path d="M67.1172 166.723C67.1172 169.262 66.6836 171.148 65.8164 172.383C64.9492 173.617 63.5938 174.234 61.75 174.234C59.9297 174.234 58.582 173.633 57.707 172.43C56.832 171.219 56.3789 169.414 56.3477 167.016V164.121C56.3477 161.613 56.7812 159.75 57.6484 158.531C58.5156 157.312 59.875 156.703 61.7266 156.703C63.5625 156.703 64.9141 157.293 65.7812 158.473C66.6484 159.645 67.0938 161.457 67.1172 163.91V166.723ZM64.9492 163.758C64.9492 161.922 64.6914 160.586 64.1758 159.75C63.6602 158.906 62.8438 158.484 61.7266 158.484C60.6172 158.484 59.8086 158.902 59.3008 159.738C58.793 160.574 58.5312 161.859 58.5156 163.594V167.062C58.5156 168.906 58.7812 170.27 59.3125 171.152C59.8516 172.027 60.6641 172.465 61.75 172.465C62.8203 172.465 63.6133 172.051 64.1289 171.223C64.6523 170.395 64.9258 169.09 64.9492 167.309V163.758Z" fill="black"/>
<path d="M289.543 174H287.363V159.551L282.992 161.156V159.188L289.203 156.855H289.543V174ZM306.594 166.723C306.594 169.262 306.16 171.148 305.293 172.383C304.426 173.617 303.07 174.234 301.227 174.234C299.406 174.234 298.059 173.633 297.184 172.43C296.309 171.219 295.855 169.414 295.824 167.016V164.121C295.824 161.613 296.258 159.75 297.125 158.531C297.992 157.312 299.352 156.703 301.203 156.703C303.039 156.703 304.391 157.293 305.258 158.473C306.125 159.645 306.57 161.457 306.594 163.91V166.723ZM304.426 163.758C304.426 161.922 304.168 160.586 303.652 159.75C303.137 158.906 302.32 158.484 301.203 158.484C300.094 158.484 299.285 158.902 298.777 159.738C298.27 160.574 298.008 161.859 297.992 163.594V167.062C297.992 168.906 298.258 170.27 298.789 171.152C299.328 172.027 300.141 172.465 301.227 172.465C302.297 172.465 303.09 172.051 303.605 171.223C304.129 170.395 304.402 169.09 304.426 167.309V163.758ZM309.523 177.398L308.293 176.555C309.027 175.531 309.41 174.477 309.441 173.391V171.434H311.562V173.133C311.562 173.922 311.367 174.711 310.977 175.5C310.594 176.289 310.109 176.922 309.523 177.398ZM324.781 166.723C324.781 169.262 324.348 171.148 323.48 172.383C322.613 173.617 321.258 174.234 319.414 174.234C317.594 174.234 316.246 173.633 315.371 172.43C314.496 171.219 314.043 169.414 314.012 167.016V164.121C314.012 161.613 314.445 159.75 315.312 158.531C316.18 157.312 317.539 156.703 319.391 156.703C321.227 156.703 322.578 157.293 323.445 158.473C324.312 159.645 324.758 161.457 324.781 163.91V166.723ZM322.613 163.758C322.613 161.922 322.355 160.586 321.84 159.75C321.324 158.906 320.508 158.484 319.391 158.484C318.281 158.484 317.473 158.902 316.965 159.738C316.457 160.574 316.195 161.859 316.18 163.594V167.062C316.18 168.906 316.445 170.27 316.977 171.152C317.516 172.027 318.328 172.465 319.414 172.465C320.484 172.465 321.277 172.051 321.793 171.223C322.316 170.395 322.59 169.09 322.613 167.309V163.758ZM338.258 166.723C338.258 169.262 337.824 171.148 336.957 172.383C336.09 173.617 334.734 174.234 332.891 174.234C331.07 174.234 329.723 173.633 328.848 172.43C327.973 171.219 327.52 169.414 327.488 167.016V164.121C327.488 161.613 327.922 159.75 328.789 158.531C329.656 157.312 331.016 156.703 332.867 156.703C334.703 156.703 336.055 157.293 336.922 158.473C337.789 159.645 338.234 161.457 338.258 163.91V166.723ZM336.09 163.758C336.09 161.922 335.832 160.586 335.316 159.75C334.801 158.906 333.984 158.484 332.867 158.484C331.758 158.484 330.949 158.902 330.441 159.738C329.934 160.574 329.672 161.859 329.656 163.594V167.062C329.656 168.906 329.922 170.27 330.453 171.152C330.992 172.027 331.805 172.465 332.891 172.465C333.961 172.465 334.754 172.051 335.27 171.223C335.793 170.395 336.066 169.09 336.09 167.309V163.758ZM351.734 166.723C351.734 169.262 351.301 171.148 350.434 172.383C349.566 173.617 348.211 174.234 346.367 174.234C344.547 174.234 343.199 173.633 342.324 172.43C341.449 171.219 340.996 169.414 340.965 167.016V164.121C340.965 161.613 341.398 159.75 342.266 158.531C343.133 157.312 344.492 156.703 346.344 156.703C348.18 156.703 349.531 157.293 350.398 158.473C351.266 159.645 351.711 161.457 351.734 163.91V166.723ZM349.566 163.758C349.566 161.922 349.309 160.586 348.793 159.75C348.277 158.906 347.461 158.484 346.344 158.484C345.234 158.484 344.426 158.902 343.918 159.738C343.41 160.574 343.148 161.859 343.133 163.594V167.062C343.133 168.906 343.398 170.27 343.93 171.152C344.469 172.027 345.281 172.465 346.367 172.465C347.438 172.465 348.23 172.051 348.746 171.223C349.27 170.395 349.543 169.09 349.566 167.309V163.758Z" fill="black"/>
<path d="M552.598 180H541.418V178.441L547.324 171.879C548.199 170.887 548.801 170.082 549.129 169.465C549.465 168.84 549.633 168.195 549.633 167.531C549.633 166.641 549.363 165.91 548.824 165.34C548.285 164.77 547.566 164.484 546.668 164.484C545.59 164.484 544.75 164.793 544.148 165.41C543.555 166.02 543.258 166.871 543.258 167.965H541.09C541.09 166.395 541.594 165.125 542.602 164.156C543.617 163.188 544.973 162.703 546.668 162.703C548.254 162.703 549.508 163.121 550.43 163.957C551.352 164.785 551.812 165.891 551.812 167.273C551.812 168.953 550.742 170.953 548.602 173.273L544.031 178.23H552.598V180ZM565.594 172.723C565.594 175.262 565.16 177.148 564.293 178.383C563.426 179.617 562.07 180.234 560.227 180.234C558.406 180.234 557.059 179.633 556.184 178.43C555.309 177.219 554.855 175.414 554.824 173.016V170.121C554.824 167.613 555.258 165.75 556.125 164.531C556.992 163.312 558.352 162.703 560.203 162.703C562.039 162.703 563.391 163.293 564.258 164.473C565.125 165.645 565.57 167.457 565.594 169.91V172.723ZM563.426 169.758C563.426 167.922 563.168 166.586 562.652 165.75C562.137 164.906 561.32 164.484 560.203 164.484C559.094 164.484 558.285 164.902 557.777 165.738C557.27 166.574 557.008 167.859 556.992 169.594V173.062C556.992 174.906 557.258 176.27 557.789 177.152C558.328 178.027 559.141 178.465 560.227 178.465C561.297 178.465 562.09 178.051 562.605 177.223C563.129 176.395 563.402 175.09 563.426 173.309V169.758ZM568.523 183.398L567.293 182.555C568.027 181.531 568.41 180.477 568.441 179.391V177.434H570.562V179.133C570.562 179.922 570.367 180.711 569.977 181.5C569.594 182.289 569.109 182.922 568.523 183.398ZM583.781 172.723C583.781 175.262 583.348 177.148 582.48 178.383C581.613 179.617 580.258 180.234 578.414 180.234C576.594 180.234 575.246 179.633 574.371 178.43C573.496 177.219 573.043 175.414 573.012 173.016V170.121C573.012 167.613 573.445 165.75 574.312 164.531C575.18 163.312 576.539 162.703 578.391 162.703C580.227 162.703 581.578 163.293 582.445 164.473C583.312 165.645 583.758 167.457 583.781 169.91V172.723ZM581.613 169.758C581.613 167.922 581.355 166.586 580.84 165.75C580.324 164.906 579.508 164.484 578.391 164.484C577.281 164.484 576.473 164.902 575.965 165.738C575.457 166.574 575.195 167.859 575.18 169.594V173.062C575.18 174.906 575.445 176.27 575.977 177.152C576.516 178.027 577.328 178.465 578.414 178.465C579.484 178.465 580.277 178.051 580.793 177.223C581.316 176.395 581.59 175.09 581.613 173.309V169.758ZM597.258 172.723C597.258 175.262 596.824 177.148 595.957 178.383C595.09 179.617 593.734 180.234 591.891 180.234C590.07 180.234 588.723 179.633 587.848 178.43C586.973 177.219 586.52 175.414 586.488 173.016V170.121C586.488 167.613 586.922 165.75 587.789 164.531C588.656 163.312 590.016 162.703 591.867 162.703C593.703 162.703 595.055 163.293 595.922 164.473C596.789 165.645 597.234 167.457 597.258 169.91V172.723ZM595.09 169.758C595.09 167.922 594.832 166.586 594.316 165.75C593.801 164.906 592.984 164.484 591.867 164.484C590.758 164.484 589.949 164.902 589.441 165.738C588.934 166.574 588.672 167.859 588.656 169.594V173.062C588.656 174.906 588.922 176.27 589.453 177.152C589.992 178.027 590.805 178.465 591.891 178.465C592.961 178.465 593.754 178.051 594.27 177.223C594.793 176.395 595.066 175.09 595.09 173.309V169.758ZM610.734 172.723C610.734 175.262 610.301 177.148 609.434 178.383C608.566 179.617 607.211 180.234 605.367 180.234C603.547 180.234 602.199 179.633 601.324 178.43C600.449 177.219 599.996 175.414 599.965 173.016V170.121C599.965 167.613 600.398 165.75 601.266 164.531C602.133 163.312 603.492 162.703 605.344 162.703C607.18 162.703 608.531 163.293 609.398 164.473C610.266 165.645 610.711 167.457 610.734 169.91V172.723ZM608.566 169.758C608.566 167.922 608.309 166.586 607.793 165.75C607.277 164.906 606.461 164.484 605.344 164.484C604.234 164.484 603.426 164.902 602.918 165.738C602.41 166.574 602.148 167.859 602.133 169.594V173.062C602.133 174.906 602.398 176.27 602.93 177.152C603.469 178.027 604.281 178.465 605.367 178.465C606.438 178.465 607.23 178.051 607.746 177.223C608.27 176.395 608.543 175.09 608.566 173.309V169.758Z" fill="black"/>
<path d="M804.57 172.414H806.199C807.223 172.398 808.027 172.129 808.613 171.605C809.199 171.082 809.492 170.375 809.492 169.484C809.492 167.484 808.496 166.484 806.504 166.484C805.566 166.484 804.816 166.754 804.254 167.293C803.699 167.824 803.422 168.531 803.422 169.414H801.254C801.254 168.062 801.746 166.941 802.73 166.051C803.723 165.152 804.98 164.703 806.504 164.703C808.113 164.703 809.375 165.129 810.289 165.98C811.203 166.832 811.66 168.016 811.66 169.531C811.66 170.273 811.418 170.992 810.934 171.688C810.457 172.383 809.805 172.902 808.977 173.246C809.914 173.543 810.637 174.035 811.145 174.723C811.66 175.41 811.918 176.25 811.918 177.242C811.918 178.773 811.418 179.988 810.418 180.887C809.418 181.785 808.117 182.234 806.516 182.234C804.914 182.234 803.609 181.801 802.602 180.934C801.602 180.066 801.102 178.922 801.102 177.5H803.281C803.281 178.398 803.574 179.117 804.16 179.656C804.746 180.195 805.531 180.465 806.516 180.465C807.562 180.465 808.363 180.191 808.918 179.645C809.473 179.098 809.75 178.312 809.75 177.289C809.75 176.297 809.445 175.535 808.836 175.004C808.227 174.473 807.348 174.199 806.199 174.184H804.57V172.414ZM825.594 174.723C825.594 177.262 825.16 179.148 824.293 180.383C823.426 181.617 822.07 182.234 820.227 182.234C818.406 182.234 817.059 181.633 816.184 180.43C815.309 179.219 814.855 177.414 814.824 175.016V172.121C814.824 169.613 815.258 167.75 816.125 166.531C816.992 165.312 818.352 164.703 820.203 164.703C822.039 164.703 823.391 165.293 824.258 166.473C825.125 167.645 825.57 169.457 825.594 171.91V174.723ZM823.426 171.758C823.426 169.922 823.168 168.586 822.652 167.75C822.137 166.906 821.32 166.484 820.203 166.484C819.094 166.484 818.285 166.902 817.777 167.738C817.27 168.574 817.008 169.859 816.992 171.594V175.062C816.992 176.906 817.258 178.27 817.789 179.152C818.328 180.027 819.141 180.465 820.227 180.465C821.297 180.465 822.09 180.051 822.605 179.223C823.129 178.395 823.402 177.09 823.426 175.309V171.758ZM828.523 185.398L827.293 184.555C828.027 183.531 828.41 182.477 828.441 181.391V179.434H830.562V181.133C830.562 181.922 830.367 182.711 829.977 183.5C829.594 184.289 829.109 184.922 828.523 185.398ZM843.781 174.723C843.781 177.262 843.348 179.148 842.48 180.383C841.613 181.617 840.258 182.234 838.414 182.234C836.594 182.234 835.246 181.633 834.371 180.43C833.496 179.219 833.043 177.414 833.012 175.016V172.121C833.012 169.613 833.445 167.75 834.312 166.531C835.18 165.312 836.539 164.703 838.391 164.703C840.227 164.703 841.578 165.293 842.445 166.473C843.312 167.645 843.758 169.457 843.781 171.91V174.723ZM841.613 171.758C841.613 169.922 841.355 168.586 840.84 167.75C840.324 166.906 839.508 166.484 838.391 166.484C837.281 166.484 836.473 166.902 835.965 167.738C835.457 168.574 835.195 169.859 835.18 171.594V175.062C835.18 176.906 835.445 178.27 835.977 179.152C836.516 180.027 837.328 180.465 838.414 180.465C839.484 180.465 840.277 180.051 840.793 179.223C841.316 178.395 841.59 177.09 841.613 175.309V171.758ZM857.258 174.723C857.258 177.262 856.824 179.148 855.957 180.383C855.09 181.617 853.734 182.234 851.891 182.234C850.07 182.234 848.723 181.633 847.848 180.43C846.973 179.219 846.52 177.414 846.488 175.016V172.121C846.488 169.613 846.922 167.75 847.789 166.531C848.656 165.312 850.016 164.703 851.867 164.703C853.703 164.703 855.055 165.293 855.922 166.473C856.789 167.645 857.234 169.457 857.258 171.91V174.723ZM855.09 171.758C855.09 169.922 854.832 168.586 854.316 167.75C853.801 166.906 852.984 166.484 851.867 166.484C850.758 166.484 849.949 166.902 849.441 167.738C848.934 168.574 848.672 169.859 848.656 171.594V175.062C848.656 176.906 848.922 178.27 849.453 179.152C849.992 180.027 850.805 180.465 851.891 180.465C852.961 180.465 853.754 180.051 854.27 179.223C854.793 178.395 855.066 177.09 855.09 175.309V171.758ZM870.734 174.723C870.734 177.262 870.301 179.148 869.434 180.383C868.566 181.617 867.211 182.234 865.367 182.234C863.547 182.234 862.199 181.633 861.324 180.43C860.449 179.219 859.996 177.414 859.965 175.016V172.121C859.965 169.613 860.398 167.75 861.266 166.531C862.133 165.312 863.492 164.703 865.344 164.703C867.18 164.703 868.531 165.293 869.398 166.473C870.266 167.645 870.711 169.457 870.734 171.91V174.723ZM868.566 171.758C868.566 169.922 868.309 168.586 867.793 167.75C867.277 166.906 866.461 166.484 865.344 166.484C864.234 166.484 863.426 166.902 862.918 167.738C862.41 168.574 862.148 169.859 862.133 171.594V175.062C862.133 176.906 862.398 178.27 862.93 179.152C863.469 180.027 864.281 180.465 865.367 180.465C866.438 180.465 867.23 180.051 867.746 179.223C868.27 178.395 868.543 177.09 868.566 175.309V171.758Z" fill="black"/>
<path d="M1069.57 176.27H1071.94V178.039H1069.57V182H1067.39V178.039H1059.62V176.762L1067.26 164.938H1069.57V176.27ZM1062.08 176.27H1067.39V167.902L1067.13 168.371L1062.08 176.27ZM1084.59 174.723C1084.59 177.262 1084.16 179.148 1083.29 180.383C1082.43 181.617 1081.07 182.234 1079.23 182.234C1077.41 182.234 1076.06 181.633 1075.18 180.43C1074.31 179.219 1073.86 177.414 1073.82 175.016V172.121C1073.82 169.613 1074.26 167.75 1075.12 166.531C1075.99 165.312 1077.35 164.703 1079.2 164.703C1081.04 164.703 1082.39 165.293 1083.26 166.473C1084.12 167.645 1084.57 169.457 1084.59 171.91V174.723ZM1082.43 171.758C1082.43 169.922 1082.17 168.586 1081.65 167.75C1081.14 166.906 1080.32 166.484 1079.2 166.484C1078.09 166.484 1077.29 166.902 1076.78 167.738C1076.27 168.574 1076.01 169.859 1075.99 171.594V175.062C1075.99 176.906 1076.26 178.27 1076.79 179.152C1077.33 180.027 1078.14 180.465 1079.23 180.465C1080.3 180.465 1081.09 180.051 1081.61 179.223C1082.13 178.395 1082.4 177.09 1082.43 175.309V171.758ZM1087.52 185.398L1086.29 184.555C1087.03 183.531 1087.41 182.477 1087.44 181.391V179.434H1089.56V181.133C1089.56 181.922 1089.37 182.711 1088.98 183.5C1088.59 184.289 1088.11 184.922 1087.52 185.398ZM1102.78 174.723C1102.78 177.262 1102.35 179.148 1101.48 180.383C1100.61 181.617 1099.26 182.234 1097.41 182.234C1095.59 182.234 1094.25 181.633 1093.37 180.43C1092.5 179.219 1092.04 177.414 1092.01 175.016V172.121C1092.01 169.613 1092.45 167.75 1093.31 166.531C1094.18 165.312 1095.54 164.703 1097.39 164.703C1099.23 164.703 1100.58 165.293 1101.45 166.473C1102.31 167.645 1102.76 169.457 1102.78 171.91V174.723ZM1100.61 171.758C1100.61 169.922 1100.36 168.586 1099.84 167.75C1099.32 166.906 1098.51 166.484 1097.39 166.484C1096.28 166.484 1095.47 166.902 1094.96 167.738C1094.46 168.574 1094.2 169.859 1094.18 171.594V175.062C1094.18 176.906 1094.45 178.27 1094.98 179.152C1095.52 180.027 1096.33 180.465 1097.41 180.465C1098.48 180.465 1099.28 180.051 1099.79 179.223C1100.32 178.395 1100.59 177.09 1100.61 175.309V171.758ZM1116.26 174.723C1116.26 177.262 1115.82 179.148 1114.96 180.383C1114.09 181.617 1112.73 182.234 1110.89 182.234C1109.07 182.234 1107.72 181.633 1106.85 180.43C1105.97 179.219 1105.52 177.414 1105.49 175.016V172.121C1105.49 169.613 1105.92 167.75 1106.79 166.531C1107.66 165.312 1109.02 164.703 1110.87 164.703C1112.7 164.703 1114.05 165.293 1114.92 166.473C1115.79 167.645 1116.23 169.457 1116.26 171.91V174.723ZM1114.09 171.758C1114.09 169.922 1113.83 168.586 1113.32 167.75C1112.8 166.906 1111.98 166.484 1110.87 166.484C1109.76 166.484 1108.95 166.902 1108.44 167.738C1107.93 168.574 1107.67 169.859 1107.66 171.594V175.062C1107.66 176.906 1107.92 178.27 1108.45 179.152C1108.99 180.027 1109.8 180.465 1110.89 180.465C1111.96 180.465 1112.75 180.051 1113.27 179.223C1113.79 178.395 1114.07 177.09 1114.09 175.309V171.758ZM1129.73 174.723C1129.73 177.262 1129.3 179.148 1128.43 180.383C1127.57 181.617 1126.21 182.234 1124.37 182.234C1122.55 182.234 1121.2 181.633 1120.32 180.43C1119.45 179.219 1119 177.414 1118.96 175.016V172.121C1118.96 169.613 1119.4 167.75 1120.27 166.531C1121.13 165.312 1122.49 164.703 1124.34 164.703C1126.18 164.703 1127.53 165.293 1128.4 166.473C1129.27 167.645 1129.71 169.457 1129.73 171.91V174.723ZM1127.57 171.758C1127.57 169.922 1127.31 168.586 1126.79 167.75C1126.28 166.906 1125.46 166.484 1124.34 166.484C1123.23 166.484 1122.43 166.902 1121.92 167.738C1121.41 168.574 1121.15 169.859 1121.13 171.594V175.062C1121.13 176.906 1121.4 178.27 1121.93 179.152C1122.47 180.027 1123.28 180.465 1124.37 180.465C1125.44 180.465 1126.23 180.051 1126.75 179.223C1127.27 178.395 1127.54 177.09 1127.57 175.309V171.758Z" fill="black"/>
<path d="M1314.41 173.445L1315.28 164.938H1324.02V166.941H1317.12L1316.61 171.594C1317.44 171.102 1318.39 170.855 1319.45 170.855C1321.01 170.855 1322.24 171.371 1323.16 172.402C1324.07 173.426 1324.53 174.812 1324.53 176.562C1324.53 178.32 1324.05 179.707 1323.1 180.723C1322.15 181.73 1320.83 182.234 1319.12 182.234C1317.62 182.234 1316.39 181.816 1315.43 180.98C1314.48 180.145 1313.94 178.988 1313.8 177.512H1315.86C1315.99 178.488 1316.34 179.227 1316.9 179.727C1317.46 180.219 1318.2 180.465 1319.12 180.465C1320.13 180.465 1320.92 180.121 1321.49 179.434C1322.07 178.746 1322.36 177.797 1322.36 176.586C1322.36 175.445 1322.05 174.531 1321.42 173.844C1320.8 173.148 1319.98 172.801 1318.95 172.801C1318 172.801 1317.26 173.008 1316.72 173.422L1316.15 173.891L1314.41 173.445ZM1337.59 174.723C1337.59 177.262 1337.16 179.148 1336.29 180.383C1335.43 181.617 1334.07 182.234 1332.23 182.234C1330.41 182.234 1329.06 181.633 1328.18 180.43C1327.31 179.219 1326.86 177.414 1326.82 175.016V172.121C1326.82 169.613 1327.26 167.75 1328.12 166.531C1328.99 165.312 1330.35 164.703 1332.2 164.703C1334.04 164.703 1335.39 165.293 1336.26 166.473C1337.12 167.645 1337.57 169.457 1337.59 171.91V174.723ZM1335.43 171.758C1335.43 169.922 1335.17 168.586 1334.65 167.75C1334.14 166.906 1333.32 166.484 1332.2 166.484C1331.09 166.484 1330.29 166.902 1329.78 167.738C1329.27 168.574 1329.01 169.859 1328.99 171.594V175.062C1328.99 176.906 1329.26 178.27 1329.79 179.152C1330.33 180.027 1331.14 180.465 1332.23 180.465C1333.3 180.465 1334.09 180.051 1334.61 179.223C1335.13 178.395 1335.4 177.09 1335.43 175.309V171.758ZM1340.52 185.398L1339.29 184.555C1340.03 183.531 1340.41 182.477 1340.44 181.391V179.434H1342.56V181.133C1342.56 181.922 1342.37 182.711 1341.98 183.5C1341.59 184.289 1341.11 184.922 1340.52 185.398ZM1355.78 174.723C1355.78 177.262 1355.35 179.148 1354.48 180.383C1353.61 181.617 1352.26 182.234 1350.41 182.234C1348.59 182.234 1347.25 181.633 1346.37 180.43C1345.5 179.219 1345.04 177.414 1345.01 175.016V172.121C1345.01 169.613 1345.45 167.75 1346.31 166.531C1347.18 165.312 1348.54 164.703 1350.39 164.703C1352.23 164.703 1353.58 165.293 1354.45 166.473C1355.31 167.645 1355.76 169.457 1355.78 171.91V174.723ZM1353.61 171.758C1353.61 169.922 1353.36 168.586 1352.84 167.75C1352.32 166.906 1351.51 166.484 1350.39 166.484C1349.28 166.484 1348.47 166.902 1347.96 167.738C1347.46 168.574 1347.2 169.859 1347.18 171.594V175.062C1347.18 176.906 1347.45 178.27 1347.98 179.152C1348.52 180.027 1349.33 180.465 1350.41 180.465C1351.48 180.465 1352.28 180.051 1352.79 179.223C1353.32 178.395 1353.59 177.09 1353.61 175.309V171.758ZM1369.26 174.723C1369.26 177.262 1368.82 179.148 1367.96 180.383C1367.09 181.617 1365.73 182.234 1363.89 182.234C1362.07 182.234 1360.72 181.633 1359.85 180.43C1358.97 179.219 1358.52 177.414 1358.49 175.016V172.121C1358.49 169.613 1358.92 167.75 1359.79 166.531C1360.66 165.312 1362.02 164.703 1363.87 164.703C1365.7 164.703 1367.05 165.293 1367.92 166.473C1368.79 167.645 1369.23 169.457 1369.26 171.91V174.723ZM1367.09 171.758C1367.09 169.922 1366.83 168.586 1366.32 167.75C1365.8 166.906 1364.98 166.484 1363.87 166.484C1362.76 166.484 1361.95 166.902 1361.44 167.738C1360.93 168.574 1360.67 169.859 1360.66 171.594V175.062C1360.66 176.906 1360.92 178.27 1361.45 179.152C1361.99 180.027 1362.8 180.465 1363.89 180.465C1364.96 180.465 1365.75 180.051 1366.27 179.223C1366.79 178.395 1367.07 177.09 1367.09 175.309V171.758ZM1382.73 174.723C1382.73 177.262 1382.3 179.148 1381.43 180.383C1380.57 181.617 1379.21 182.234 1377.37 182.234C1375.55 182.234 1374.2 181.633 1373.32 180.43C1372.45 179.219 1372 177.414 1371.96 175.016V172.121C1371.96 169.613 1372.4 167.75 1373.27 166.531C1374.13 165.312 1375.49 164.703 1377.34 164.703C1379.18 164.703 1380.53 165.293 1381.4 166.473C1382.27 167.645 1382.71 169.457 1382.73 171.91V174.723ZM1380.57 171.758C1380.57 169.922 1380.31 168.586 1379.79 167.75C1379.28 166.906 1378.46 166.484 1377.34 166.484C1376.23 166.484 1375.43 166.902 1374.92 167.738C1374.41 168.574 1374.15 169.859 1374.13 171.594V175.062C1374.13 176.906 1374.4 178.27 1374.93 179.152C1375.47 180.027 1376.28 180.465 1377.37 180.465C1378.44 180.465 1379.23 180.051 1379.75 179.223C1380.27 178.395 1380.54 177.09 1380.57 175.309V171.758Z" fill="black"/>
<path d="M83.2071 282.293C82.8166 281.902 82.1834 281.902 81.7929 282.293L75.4289 288.657C75.0384 289.047 75.0384 289.681 75.4289 290.071C75.8195 290.462 76.4526 290.462 76.8431 290.071L82.5 284.414L88.1569 290.071C88.5474 290.462 89.1805 290.462 89.5711 290.071C89.9616 289.681 89.9616 289.047 89.5711 288.657L83.2071 282.293ZM83.5 338.009V283H81.5V338.009H83.5Z" fill="black"/>
<path d="M317.207 282.293C316.817 281.902 316.183 281.902 315.793 282.293L309.429 288.657C309.038 289.047 309.038 289.681 309.429 290.071C309.819 290.462 310.453 290.462 310.843 290.071L316.5 284.414L322.157 290.071C322.547 290.462 323.181 290.462 323.571 290.071C323.962 289.681 323.962 289.047 323.571 288.657L317.207 282.293ZM317.5 338.009V283H315.5V338.009H317.5Z" fill="black"/>
<path d="M421.207 282.293C420.817 281.902 420.183 281.902 419.793 282.293L413.429 288.657C413.038 289.047 413.038 289.681 413.429 290.071C413.819 290.462 414.453 290.462 414.843 290.071L420.5 284.414L426.157 290.071C426.547 290.462 427.181 290.462 427.571 290.071C427.962 289.681 427.962 289.047 427.571 288.657L421.207 282.293ZM421.5 338.009V283H419.5V338.009H421.5Z" fill="black"/>
<path d="M836.707 282.293C836.317 281.902 835.683 281.902 835.293 282.293L828.929 288.657C828.538 289.047 828.538 289.681 828.929 290.071C829.319 290.462 829.953 290.462 830.343 290.071L836 284.414L841.657 290.071C842.047 290.462 842.681 290.462 843.071 290.071C843.462 289.681 843.462 289.047 843.071 288.657L836.707 282.293ZM837 338.009V283H835V338.009H837Z" fill="black"/>
<path d="M1280.71 282.293C1280.32 281.902 1279.68 281.902 1279.29 282.293L1272.93 288.657C1272.54 289.047 1272.54 289.681 1272.93 290.071C1273.32 290.462 1273.95 290.462 1274.34 290.071L1280 284.414L1285.66 290.071C1286.05 290.462 1286.68 290.462 1287.07 290.071C1287.46 289.681 1287.46 289.047 1287.07 288.657L1280.71 282.293ZM1281 338.009V283H1279V338.009H1281Z" fill="black"/>
<path d="M87.1064 362.039H78.8447L77.1162 367.005H73.2637L81.3203 345.676H84.6455L92.7168 367.005H88.8496L87.1064 362.039ZM79.8848 359.05H86.0664L82.9756 350.203L79.8848 359.05Z" fill="black"/>
<path d="M309.168 367.005V345.676H316.478C318.89 345.676 320.726 346.16 321.985 347.127C323.245 348.093 323.875 349.534 323.875 351.448C323.875 352.424 323.611 353.303 323.084 354.085C322.557 354.866 321.785 355.471 320.77 355.901C321.922 356.214 322.811 356.804 323.436 357.674C324.07 358.533 324.388 359.568 324.388 360.779C324.388 362.781 323.743 364.319 322.454 365.393C321.175 366.467 319.339 367.005 316.946 367.005H309.168ZM312.874 357.381V364.046H316.99C318.152 364.046 319.061 363.758 319.715 363.181C320.369 362.605 320.696 361.804 320.696 360.779C320.696 358.562 319.563 357.429 317.298 357.381H312.874ZM312.874 354.656H316.507C317.659 354.656 318.558 354.397 319.202 353.88C319.856 353.352 320.184 352.61 320.184 351.653C320.184 350.598 319.881 349.837 319.275 349.368C318.68 348.899 317.747 348.665 316.478 348.665H312.874V354.656Z" fill="white"/>
<path d="M429.442 360.061C429.228 362.337 428.388 364.114 426.923 365.393C425.458 366.663 423.51 367.298 421.078 367.298C419.379 367.298 417.88 366.897 416.581 366.096C415.292 365.286 414.296 364.138 413.593 362.654C412.89 361.17 412.523 359.446 412.494 357.483V355.491C412.494 353.479 412.851 351.707 413.563 350.174C414.276 348.64 415.297 347.459 416.625 346.629C417.963 345.799 419.506 345.383 421.254 345.383C423.607 345.383 425.502 346.023 426.938 347.302C428.373 348.582 429.208 350.388 429.442 352.722H425.751C425.575 351.189 425.126 350.086 424.403 349.412C423.69 348.728 422.641 348.386 421.254 348.386C419.643 348.386 418.402 348.977 417.533 350.159C416.674 351.331 416.234 353.054 416.215 355.33V357.219C416.215 359.524 416.625 361.282 417.445 362.493C418.275 363.704 419.486 364.309 421.078 364.309C422.533 364.309 423.627 363.982 424.359 363.328C425.092 362.674 425.556 361.585 425.751 360.061H429.442Z" fill="black"/>
<path d="M828.168 367.005V345.676H834.467C836.352 345.676 838.021 346.096 839.477 346.936C840.941 347.776 842.074 348.967 842.875 350.51C843.676 352.053 844.076 353.821 844.076 355.813V356.883C844.076 358.904 843.671 360.681 842.86 362.215C842.06 363.748 840.912 364.929 839.418 365.759C837.934 366.59 836.229 367.005 834.306 367.005H828.168ZM831.874 348.665V364.046H834.291C836.234 364.046 837.724 363.44 838.759 362.229C839.804 361.008 840.336 359.26 840.355 356.985V355.799C840.355 353.484 839.853 351.716 838.847 350.496C837.841 349.275 836.381 348.665 834.467 348.665H831.874Z" fill="black"/>
<path d="M1284.63 357.483H1275.87V364.046H1286.11V367.005H1272.17V345.676H1286.01V348.665H1275.87V354.553H1284.63V357.483Z" fill="black"/>
</svg>
