<svg width="250" height="250" viewBox="0 0 250 250" fill="none" xmlns="http://www.w3.org/2000/svg">
<g filter="url(#filter0_d)">
<path d="M117.587 20.6605C120.108 13.6337 130.028 13.5842 132.619 20.5854L151.773 72.3329C152.83 75.1904 155.419 77.199 158.45 77.5133L225.829 84.5007C232.747 85.2182 235.518 93.8129 230.321 98.4355L179.746 143.422C177.455 145.46 176.531 148.628 177.366 151.579L192.178 203.893C194.247 211.201 185.923 217.009 179.778 212.544L129.702 176.162C126.898 174.125 123.102 174.125 120.298 176.162L70.3993 212.415C64.2359 216.893 55.8944 211.037 58.0125 203.719L73.0913 151.621C73.9514 148.65 73.0209 145.448 70.7018 143.4L19.8085 98.4617C14.5817 93.8464 17.3499 85.2192 24.2863 84.5068L92.3603 77.5147C95.4228 77.2002 98.0331 75.1561 99.0728 72.2584L117.587 20.6605Z" fill="#FFED60"/>
</g>
<path d="M123 135H92.4062V129.781L107.562 113.25C109.75 110.812 111.302 108.781 112.219 107.156C113.156 105.51 113.625 103.865 113.625 102.219C113.625 100.052 113.01 98.3021 111.781 96.9688C110.573 95.6354 108.938 94.9688 106.875 94.9688C104.417 94.9688 102.51 95.7188 101.156 97.2188C99.8021 98.7188 99.125 100.771 99.125 103.375H91.5312C91.5312 100.604 92.1562 98.1146 93.4062 95.9062C94.6771 93.6771 96.4792 91.9479 98.8125 90.7188C101.167 89.4896 103.875 88.875 106.938 88.875C111.354 88.875 114.833 89.9896 117.375 92.2188C119.938 94.4271 121.219 97.4896 121.219 101.406C121.219 103.677 120.573 106.062 119.281 108.562C118.01 111.042 115.917 113.865 113 117.031L101.875 128.938H123V135ZM130.812 112.438L133.281 89.5H157.719V96.0625H139.594L138.344 106.938C140.448 105.729 142.823 105.125 145.469 105.125C149.802 105.125 153.167 106.51 155.562 109.281C157.979 112.052 159.188 115.781 159.188 120.469C159.188 125.094 157.854 128.781 155.188 131.531C152.521 134.26 148.865 135.625 144.219 135.625C140.052 135.625 136.594 134.448 133.844 132.094C131.115 129.719 129.635 126.594 129.406 122.719H136.75C137.042 124.927 137.833 126.625 139.125 127.812C140.417 128.979 142.104 129.562 144.188 129.562C146.521 129.562 148.333 128.729 149.625 127.062C150.938 125.396 151.594 123.125 151.594 120.25C151.594 117.479 150.875 115.292 149.438 113.688C148 112.062 146.021 111.25 143.5 111.25C142.125 111.25 140.958 111.438 140 111.812C139.042 112.167 138 112.875 136.875 113.938L130.812 112.438Z" fill="black"/>
<defs>
<filter id="filter0_d" x="17.0934" y="15.3624" width="215.921" height="206.743" filterUnits="userSpaceOnUse" color-interpolation-filters="sRGB">
<feFlood flood-opacity="0" result="BackgroundImageFix"/>
<feColorMatrix in="SourceAlpha" type="matrix" values="0 0 0 0 0 0 0 0 0 0 0 0 0 0 0 0 0 0 127 0" result="hardAlpha"/>
<feOffset dy="8"/>
<feComposite in2="hardAlpha" operator="out"/>
<feColorMatrix type="matrix" values="0 0 0 0 1 0 0 0 0 0.898039 0 0 0 0 0.4 0 0 0 1 0"/>
<feBlend mode="multiply" in2="BackgroundImageFix" result="effect1_dropShadow"/>
<feBlend mode="normal" in="SourceGraphic" in2="effect1_dropShadow" result="shape"/>
</filter>
</defs>
</svg>
