<svg width="250" height="250" viewBox="0 0 250 250" fill="none" xmlns="http://www.w3.org/2000/svg">
<rect width="250" height="250" fill="white"/>
<g filter="url(#filter0_d)">
<path d="M119.294 17.5623C121.09 12.0344 128.91 12.0344 130.706 17.5623L151.717 82.227C152.52 84.6991 154.824 86.3729 157.424 86.3729H225.416C231.228 86.3729 233.645 93.8106 228.943 97.227L173.936 137.192C171.833 138.72 170.953 141.428 171.756 143.9L192.767 208.565C194.563 214.093 188.236 218.689 183.534 215.273L128.527 175.308C126.424 173.78 123.576 173.78 121.473 175.308L66.4662 215.273C61.7639 218.689 55.4371 214.093 57.2332 208.565L78.244 143.9C79.0473 141.428 78.1673 138.72 76.0644 137.192L21.0573 97.227C16.355 93.8106 18.7717 86.3729 24.584 86.3729H92.5765C95.1759 86.3729 97.4796 84.6991 98.2828 82.227L119.294 17.5623Z" fill="#FFED60"/>
</g>
<path d="M123.25 139H104.129V135.738L113.602 125.406C114.969 123.883 115.939 122.613 116.512 121.598C117.098 120.569 117.391 119.54 117.391 118.512C117.391 117.158 117.007 116.064 116.238 115.23C115.483 114.397 114.461 113.98 113.172 113.98C111.635 113.98 110.444 114.449 109.598 115.387C108.751 116.324 108.328 117.607 108.328 119.234H103.582C103.582 117.503 103.973 115.947 104.754 114.566C105.548 113.173 106.674 112.092 108.133 111.324C109.604 110.556 111.297 110.172 113.211 110.172C115.971 110.172 118.146 110.868 119.734 112.262C121.336 113.642 122.137 115.556 122.137 118.004C122.137 119.423 121.733 120.914 120.926 122.477C120.132 124.026 118.823 125.79 117 127.77L110.047 135.211H123.25V139ZM128.133 124.898L129.676 110.562H144.949V114.664H133.621L132.84 121.461C134.155 120.706 135.639 120.328 137.293 120.328C140.001 120.328 142.104 121.194 143.602 122.926C145.112 124.658 145.867 126.988 145.867 129.918C145.867 132.809 145.034 135.113 143.367 136.832C141.701 138.538 139.415 139.391 136.512 139.391C133.908 139.391 131.746 138.655 130.027 137.184C128.322 135.699 127.397 133.746 127.254 131.324H131.844C132.026 132.704 132.521 133.766 133.328 134.508C134.135 135.237 135.19 135.602 136.492 135.602C137.951 135.602 139.083 135.081 139.891 134.039C140.711 132.997 141.121 131.578 141.121 129.781C141.121 128.049 140.672 126.682 139.773 125.68C138.875 124.664 137.638 124.156 136.062 124.156C135.203 124.156 134.474 124.273 133.875 124.508C133.276 124.729 132.625 125.172 131.922 125.836L128.133 124.898Z" fill="black"/>
<defs>
<filter id="filter0_d" x="18.5725" y="13.4164" width="212.855" height="211.03" filterUnits="userSpaceOnUse" color-interpolation-filters="sRGB">
<feFlood flood-opacity="0" result="BackgroundImageFix"/>
<feColorMatrix in="SourceAlpha" type="matrix" values="0 0 0 0 0 0 0 0 0 0 0 0 0 0 0 0 0 0 127 0" result="hardAlpha"/>
<feOffset dy="8"/>
<feComposite in2="hardAlpha" operator="out"/>
<feColorMatrix type="matrix" values="0 0 0 0 1 0 0 0 0 0.898039 0 0 0 0 0.4 0 0 0 1 0"/>
<feBlend mode="multiply" in2="BackgroundImageFix" result="effect1_dropShadow"/>
<feBlend mode="normal" in="SourceGraphic" in2="effect1_dropShadow" result="shape"/>
</filter>
</defs>
</svg>
